<svg enable-background="new 0 0 1080 1080" version="1.1" viewBox="0 0 1080 1080" xmlns="http://www.w3.org/2000/svg">
 <style type="text/css">.st0{fill:#033DFF;}</style>
 <path class="st0" d="m572.96 402.81c9.48-15.77 19.32-31.34 28.29-47.39 4.38-7.83 9.96-10.29 18.53-9.14 20.18 2.7 39.77 7.17 58 16.6 31.46 16.28 48.2 42.91 50.62 77.43 1.44 20.63 0.45 41.81-2.51 62.3-6.81 47.15-46.78 80.33-96.93 80.9-59.84 0.69-119.7 0.25-179.55 0.14-56.84-0.11-95.93-43.02-98.62-89.4-1.21-20.89-3.36-41.61 1.12-62.23 8.16-37.51 31.49-62 67.13-74.39 15.86-5.51 32.6-8.66 49.13-11.94 2.82-0.56 7.81 2.8 9.68 5.71 9.3 14.48 17.88 29.42 26.74 44.17 1.51 2.52 3.21 4.92 5.81 8.88 3.11-13.79 6.5-25.88 8.29-38.21 0.72-4.97-1.88-10.49-3.25-15.68-3.01-11.32 0.36-16.07 12.05-16.26 9.37-0.15 18.75-0.23 28.11 0.03 10.66 0.3 15.18 5.69 11.04 15.01-8.49 19.07 2.55 35.73 6.32 53.47zm-29.42 121.35c30.52 0 61.05 0.14 91.57-0.05 20.71-0.13 37.39-13.8 38.94-33.07 0.78-9.74-1.05-19.75-2.26-29.58-0.68-5.56-4.85-9.33-10.17-7.49-3.38 1.17-7.02 5.47-7.93 9.04-1.46 5.72-0.62 12-0.98 18.03-1.19 19.81-5.99 24.38-25.59 24.39-46.84 0.03-93.68 0.01-140.52 0.01-11.79 0-23.58 0.18-35.36-0.06-13.11-0.27-20.03-6.89-21.14-19.84-0.62-7.23-0.98-14.47-1.5-21.71-0.44-6.21-2.97-10.65-9.99-10.18-7.02 0.46-9.11 5.38-8.61 11.44 0.64 7.81 1.69 15.61 2.87 23.36 3.7 24.36 16.94 35.65 41.83 35.7 29.61 0.06 59.22 0.01 88.84 0.01z"/>
 <path class="st0" d="m543.76 832.51c11.39-10.29 22.47-19.65 32.74-29.82 6.28-6.22 12.69-8.56 21.16-6 8.37 2.53 17.07 4.05 25.26 7.03 26.62 9.68 42.81 28.44 44.5 57.05 0.97 16.45 0.65 33.41-2.31 49.55-5.14 28.05-29.63 49.06-58.22 49.78-43.52 1.09-87.1 1.11-130.62 0.11-30.05-0.69-54.75-21.66-59.74-51.31-2.81-16.67-3.04-34.56-0.31-51.23 5.59-34.05 30.83-48.89 61.72-57.31 14.74-4.02 26.62-2.63 37.7 8.84 8.14 8.41 18.06 15.09 28.12 23.31zm0.8 89.3c19.64 0 39.29 0.12 58.93-0.04 13.75-0.11 25.46-7.34 28.25-18.5 1.96-7.82 2.25-16.11 2.76-24.23 0.37-5.88-3.36-9.12-8.92-9.17-5.57-0.06-8.85 3.19-9.28 9.01-0.4 5.41-0.99 10.8-1.44 16.2-0.58 7.08-4.79 10.1-11.48 10.1-38.98 0.03-77.97 0.07-116.95-0.04-6.93-0.02-11.43-3.34-12.01-10.8-0.42-5.41-0.1-11.09-1.76-16.11-1.1-3.32-4.92-7.59-7.9-7.9-3-0.32-8.43 3.07-9.41 5.97-7.93 23.59 8.16 45.41 33 45.5 18.74 0.07 37.48 0.02 56.21 0.01z"/>
 <path class="st0" d="m847.09 958.79c-19.35 0-38.71 0.13-58.06-0.03-37.68-0.31-63.9-24.09-67.79-61.68-0.9-8.69-1.36-17.55-0.76-26.25 2.71-39.45 22.91-61.64 63.38-72.14 14.9-3.87 27.37-3.42 38.52 8.75 6.27 6.84 14.57 11.77 21.46 18.1 4.66 4.28 7.96 4.67 12.94 0.19 9.42-8.49 19.8-15.92 29.26-24.37 5.77-5.15 11.64-7.1 19.02-4.78 11.77 3.69 24.1 6.08 35.25 11.12 19.85 8.97 32.39 25.02 33.66 46.96 1.04 17.94 0.8 36.41-2.29 54.04-4.88 27.85-30.07 47.91-58.38 49.82-1.21 0.08-2.41 0.2-3.62 0.2-20.86 0.01-41.73 0.01-62.59 0.01v0.06zm5.17-36.98c19.95 0 39.89 0.13 59.84-0.04 14.46-0.13 26.46-8.51 28.76-20.32 1.32-6.79 1.61-13.79 2.2-20.7 0.56-6.54-2.44-10.82-9.1-10.86-6.1-0.03-9.01 3.85-9.24 10.01-0.19 5.11-0.96 10.19-1.39 15.29-0.61 7.13-4.93 9.98-11.57 9.99-38.98 0.03-77.97 0.08-116.95-0.05-6.39-0.02-11.07-2.87-11.73-10.01-0.53-5.7-0.22-11.67-1.93-17-1.06-3.29-5.01-7.53-8-7.81s-8.38 3.18-9.32 6.1c-7.69 23.92 8.19 45.31 33.14 45.39 18.42 0.07 36.86 0.02 55.29 0.01z"/>
 <path class="st0" d="m232.28 958.78c-19.35 0.01-38.7 0.13-58.05-0.01-38.12-0.27-64.92-24.4-68.01-62.28-1.07-13.14-1.21-26.78 1.08-39.69 6.09-34.32 30.58-50.26 62.09-58.01 4.39-1.08 8.97-2.6 13.34-2.25 5.29 0.42 11.37 1.31 15.49 4.26 11.04 7.89 21.36 16.83 31.69 25.68 3.94 3.38 6.72 3.56 10.78 0.03 10.26-8.92 20.61-17.83 31.65-25.72 4.12-2.94 10.24-3.1 15.48-4.41 0.82-0.2 1.79 0.16 2.68 0.33 45.84 8.6 72.96 31.17 69.3 84.81-0.54 7.83-0.48 15.8-1.98 23.46-6.21 31.83-31.32 52.99-63.86 53.7-20.55 0.45-41.12 0.08-61.68 0.1zm2.77-36.96c18.44 0 36.89 0.01 55.33 0 27.14-0.02 40.31-17.01 34.05-43.44-1.34-5.66-4.3-8.85-9.83-8.5-6.14 0.39-8.61 4.5-8.76 10.56-0.12 5.11-0.97 10.19-1.46 15.29-0.65 6.76-4.93 9.42-11.11 9.43-39.01 0.07-78.01 0.09-117.02 0-6.89-0.02-11.54-3.14-12.15-10.65-0.44-5.41-0.12-11.09-1.77-16.12-1.09-3.34-4.81-7.67-7.79-8.03-3-0.37-8.5 2.92-9.51 5.81-8.18 23.28 8.11 45.54 32.86 45.64 19.07 0.07 38.12 0.01 57.16 0.01z"/>
 <path class="st0" d="m545.93 119.06c52.27 0.22 94.39 42.64 94.24 94.93-0.15 52.08-42.83 94.54-94.89 94.4-51.95-0.15-94.41-42.95-94.27-95.04 0.14-52.15 42.78-94.5 94.92-94.29z"/>
 <path class="st0" d="m852.01 798.89c-37.11-0.1-66.8-29.83-66.74-66.81s29.88-66.61 66.98-66.55c36.55 0.06 67.06 30.58 66.95 66.98-0.12 36.95-30.01 66.48-67.19 66.38z"/>
 <path class="st0" d="m234.96 798.89c-37.12-0.15-66.78-29.92-66.66-66.9 0.12-36.99 29.97-66.57 67.08-66.46 36.56 0.11 67 30.65 66.85 67.07-0.17 36.94-30.09 66.44-67.27 66.29z"/>
 <path class="st0" d="m543.26 665.53c36.59-0.16 67.26 30.06 67.45 66.48 0.19 36.92-29.54 66.74-66.68 66.88s-67.03-29.33-67.25-66.31c-0.2-36.99 29.43-66.89 66.48-67.05z"/>
</svg>
