<svg enable-background="new 0 0 1080 1080" version="1.1" viewBox="0 0 1080 1080" xmlns="http://www.w3.org/2000/svg">
 <style type="text/css">.st0{fill:#033DFF;}</style>
 <path class="st0" d="m919.78 562.77c-4.65 16.36-7.42 33.57-14.31 48.92-21.07 46.94-58.26 76.12-106.98 90.91-17.44 5.29-34.86-4.41-40.27-21.28-5.55-17.3 3.28-34.93 21.24-40.86 17.28-5.7 33.23-13.48 46.22-26.43 27.37-27.29 35.59-60.01 24.21-96.54-11.56-37.11-37.76-59.3-75.8-67.22-5.54-1.15-11.31-1.42-17-1.64-19.22-0.75-32.43-13.95-33.02-33.24-1.54-50.28-35.22-88.58-84.98-96.29-5.83-0.9-11.96-1.03-17.83-0.39-18.23 1.99-31-5.12-37.75-22.5-7.82-20.16-17.65-39.09-31.87-55.53-71.69-82.88-202.65-66.2-252.81 32.25-12.42 24.39-18.46 50.38-18.26 77.76 0.15 19.6-9.14 31.44-28.47 35.84-59.1 13.47-101.12 64.72-102.04 124.46-0.97 63.13 42.99 116.97 106.53 129.86 10.58 2.15 21.52 2.67 32.33 3.46 17.58 1.29 30.9 15.22 30.84 32.78-0.06 17.5-13.57 32.17-31.14 32.35-91.78 0.94-178.97-60.27-199.09-152.79-20.76-95.44 29.45-189.58 119.89-225.08 5.41-2.12 7.05-4.85 7.73-10.44 14.32-118.43 112.77-206.23 234.03-198.12 82.47 5.51 141.66 48.41 180.12 120.72 3.53 6.65 7.31 9.85 15.08 10.71 66.28 7.36 122.39 57.15 137.9 122.4 1.71 7.18 4.8 9.88 11.74 11.54 64.62 15.42 113.64 70.41 122.21 136.45 0.3 2.35 1.02 4.64 1.55 6.96v30.98z"/>
 <path class="st0" d="m397.9 957.51c-7.68-5.34-16.2-9.81-22.88-16.2-19.83-18.94-39.03-38.56-58.3-58.08-9.07-9.19-12.49-20.22-8.64-32.87 3.72-12.23 12.11-19.77 24.46-22.57 10.82-2.45 20.42 0.64 28.69 7.87 3.19 2.79 6.16 5.82 10.58 10.03v-10.22c0-73.89-0.05-147.78 0.03-221.67 0.03-24.51 21.39-40.55 43.41-32.86 13.61 4.75 21.77 16.94 21.78 32.94 0.04 69.54 0.02 139.08 0.02 208.63v23.4c3.75-3.65 6.26-6.16 8.82-8.6 14.08-13.41 33.66-13.73 46.76-0.79 13.02 12.85 13.08 32.87-0.5 46.73-21.1 21.54-42.37 42.91-64.04 63.87-4.69 4.53-11.37 6.99-17.14 10.41-4.35-0.02-8.7-0.02-13.05-0.02z"/>
 <path class="st0" d="m593.6 957.51c-19.52-6.62-26.49-20.45-26.32-40.69 0.59-71.76 0.23-143.52 0.23-215.29v-8.77c-0.77-0.6-1.54-1.19-2.3-1.79-2.26 2.86-4.2 6.06-6.82 8.54-14.08 13.36-33.88 13.37-46.73 0.23-12.69-12.97-12.74-32.55 0.57-46.14 21.3-21.75 42.82-43.28 64.56-64.59 13.76-13.49 32.91-13.51 46.77 0.04 21.77 21.28 43.27 42.84 64.57 64.58 13.23 13.51 13.15 33.28 0.46 46.16-12.91 13.11-32.74 13.04-46.74-0.34-2.53-2.41-4.45-5.46-6.65-8.21-0.82 0.37-1.63 0.74-2.45 1.12v8.36c0 72.03-0.36 144.07 0.23 216.1 0.17 20.25-6.81 34.06-26.33 40.68-4.35 0.01-8.7 0.01-13.05 0.01z"/>
</svg>
