<svg enable-background="new 0 0 1080 1080" version="1.1" viewBox="0 0 1080 1080" xmlns="http://www.w3.org/2000/svg">
 <style type="text/css">.st0{fill:#033DFF;}</style>
 <path class="st0" d="m833.5 120.22c6.68 4.63 8.43 11.01 8.35 19.01-0.36 32.76-0.15 65.54-0.15 98.13 11.43 4.54 13.1 7 13.11 19.1 0.01 40.44 0.02 80.87 0 121.31-0.01 26.06-12.6 40.62-39.34 44.59v9.36c0 88.25 0.24 176.5-0.06 264.74-0.41 122.43-82.5 226.96-200.45 255.85-149.1 36.51-299.49-64.68-321.08-216.3-1.99-14.01-2.93-28.28-2.97-42.43-0.27-86.88-0.13-173.76-0.13-260.65v-11.01c-7.31 0-14.28 0.01-21.26 0-28.75-0.03-44.31-15.72-44.32-44.74-0.01-39.62-0.01-79.23 0-118.85 0-16.82 3.1-19.91 20.07-20.05 1.63-0.01 3.27 0 6.17 0v-8.87c0-30.05 0.23-60.11-0.15-90.16-0.1-8 1.67-14.38 8.33-19.03h141.01c6.75 4.59 8.47 10.98 8.37 18.98-0.38 30.05-0.15 60.11-0.15 90.16v8.91c2.88 0 4.51-0.01 6.15 0 17.02 0.15 20.09 3.2 20.09 20.01 0 40.44 0.04 80.88-0.02 121.31-0.04 26.06-16.38 42.23-42.61 42.31-7.53 0.02-15.06 0-22.34 0v84.97c122.37-96.96 244.21-97.15 366.1 0.14v-84.72c-26.41-4.1-38.79-18.46-38.8-44.56-0.02-40.44-0.01-80.88 0-121.31 0-12.11 1.66-14.54 13.11-19.07 0-32.6 0.21-65.37-0.15-98.13-0.09-8 1.65-14.38 8.35-19.01 38.25 0.01 76.51 0.01 114.77 0.01zm-516.49 577.1c-0.03 130.16 106.09 236.24 236.25 236.16 129.84-0.08 235.69-105.8 235.95-235.66 0.27-130.17-105.66-236.41-235.85-236.55-130.18-0.13-236.32 105.87-236.35 236.05zm91.83-432.22h-157.42c0 38.23-0.02 75.87 0.01 113.52 0.01 12.71 4.44 17.05 17.35 17.06 37.67 0.03 75.34 0.01 113.01 0.01 26.26 0 27.04-0.78 27.04-27.02 0.01-34.36 0.01-68.72 0.01-103.57zm315.37-0.26c-0.26 1.47-0.52 2.24-0.52 3.02-0.03 37.66-0.11 75.31 0 112.97 0.03 9.98 5.11 14.77 15.42 14.81 24.01 0.1 48.02 0.06 72.04 0.02 13.19-0.02 17.41-4.34 17.41-17.82 0.02-35.2 0.02-70.4-0.01-105.6 0-2.37-0.24-4.74-0.39-7.41-34.81 0.01-69.09 0.01-103.95 0.01zm-446.15-70.77c7.46-11.16 17.43-8.14 26.38-8.06 7.34 0.07 12.36 5.75 12.52 12.6 0.16 7.17-5.03 13.01-12.74 13.28-9.19 0.32-18.95 2.28-26.08-7.11v32.94h104.14v-33.44c-8.38 11.04-19.22 8.15-29.18 7.01-6.22-0.71-9.73-5.97-9.69-12.47 0.05-6.5 3.64-11.68 9.87-12.34 9.96-1.06 20.75-3.72 28.73 6.51v-46.11h-103.94c-0.01 15.35-0.01 30.3-0.01 47.19zm485.68 228.24c-0.35 1.09-0.66 1.59-0.66 2.09-0.06 37.43-0.1 74.86-0.07 112.28 0 1.82 0.28 3.92 1.21 5.41 8.01 12.82 16.19 25.53 24.6 38.7v-158.48h-25.08zm-446.28 0.02v158.6c7.58-12.05 14.99-23.38 21.86-35.04 2.08-3.53 3.68-7.94 3.72-11.96 0.29-32.77 0.17-65.55 0.17-98.33v-13.28c-8.88 0.01-16.97 0.01-25.75 0.01zm497.74-275.31h-78.14v45.47c9.59-9.73 31.89-9.82 39.54 2.04 3.82-8.22 10.83-8.95 18.54-8.83 7.4 0.11 14.71-0.31 20.06 8.97v-47.65zm-78.11 91.25h38.95 38.78v-33.46c-11.11 10.91-28.81 10.21-38.61-0.86-7.52 11.37-29.84 11-39.11 1.33-0.01 10.84-0.01 21.34-0.01 32.99z"/>
 <path class="st0" d="m343.24 697c0.17-115.77 94.79-209.87 210.62-209.49 115.42 0.38 209.3 94.75 209.11 210.21-0.19 115.76-94.89 209.94-210.65 209.52-115.44-0.41-209.25-94.75-209.08-210.24zm210.07 184.01c101.08-0.09 183.44-82.55 183.43-183.65-0.01-101.13-82.33-183.53-183.44-183.62-101.49-0.08-183.98 82.5-183.82 184.04 0.16 101.04 82.71 183.32 183.83 183.23z"/>
</svg>
