<svg enable-background="new 0 0 1080 1080" version="1.1" viewBox="0 0 1080 1080" xmlns="http://www.w3.org/2000/svg">
 <style type="text/css">.st0{fill:#033DFF;}</style>
 <path class="st0" d="m637.96 790.03c35.41 0 70.15-0.01 104.88 0 15.44 0.01 19.61 4.15 19.64 19.47 0.02 12.43 0 24.87 0 37.27 4.35 1.93 8.42 3.45 12.23 5.48 22.89 12.16 34.14 38.18 27.56 63.42-6.35 24.35-29.25 41.55-54.8 41.14-25.69-0.41-47.68-18.67-53.17-44.16-5.38-24.96 6.68-50.91 30.23-61.08 8.59-3.71 11.17-8.02 10.26-16.48-0.58-5.38-0.11-10.87-0.11-17.27h-9.97c-32.44 0-64.88 0.03-97.33-0.02-13.08-0.02-17.81-4.73-17.83-17.78-0.04-39.95-0.02-79.91-0.02-120.54h-55.05v139.4c33.19 11.47 46.26 41.66 39.27 68.79-6.36 24.68-29.62 41.99-55.53 41.31-25.96-0.69-47.57-19.36-52.83-45.65-5.45-27.25 8.86-50.28 40.24-64.21v-139.77h-55.14v9.54c0 37.07 0.03 74.14-0.02 111.21-0.02 12.95-4.82 17.68-17.92 17.7-35.31 0.04-70.62 0.01-107.18 0.01 0 8.95-0.4 17.54 0.29 26.05 0.16 2.02 3.69 4.45 6.17 5.5 23.05 9.69 37.07 32.1 35.07 56.56-1.99 24.29-19.83 44.32-44.15 49.58-27.43 5.93-54.96-9.85-63.94-36.66-8.99-26.81 3.31-55.7 28.91-67.83 3.12-1.48 6.35-2.71 9.83-4.19 0-13.13-0.05-26.15 0.01-39.17 0.06-12.93 4.81-17.61 17.97-17.62 35.31-0.04 70.62-0.01 106.54-0.01v-110.71h-26.69c-0.15 2.18-0.47 4.65-0.48 7.12-0.04 18.53-0.01 37.07-0.03 55.6-0.01 16.08-4.02 20.17-19.82 20.18-51.27 0.01-102.54 0.15-153.81-0.18-6.56-0.04-9.36 1.87-11.84 7.94-10 24.47-36.06 38.06-61.42 32.81-26.88-5.57-45.28-28.04-45.07-55.03 0.2-26.44 18.75-48.53 45.32-53.96 25.3-5.17 51.09 8.67 61.48 33 1.02 2.38 1.96 4.79 3.01 7.36h153.66v-54.43c-4.95-1.36-10.41-2.18-15.28-4.32-16.38-7.2-25.11-20.06-25.65-37.94-0.41-13.58-0.08-27.18-0.08-42.05-3.74 0-7.08 0.11-10.41-0.02-25.7-1.03-51.87 0.64-77.02-3.68-78-13.4-134.78-82.97-135.05-162.32-0.27-79.98 56.11-149.31 134.26-164.1 13.81-2.61 28.17-2.84 42.29-3.06 5.8-0.09 8.51-1.76 11.46-6.57 55.84-91.12 137.5-136.48 244.15-132.21 110.98 4.44 206.38 81.42 238.35 188.34 0.66 2.2 1.31 4.4 1.4 4.71 18.78 1.52 36.89 1.12 54.17 4.72 65.16 13.57 110.81 74.27 107.99 141.69-2.78 66.31-54.17 122.64-119.95 130.87-12.01 1.5-24.25 1.43-36.39 1.56-21.66 0.23-43.32 0.07-65.94 0.07 0 12.49 0.01 24.27 0 36.04-0.02 28.29-12.9 43.34-41.29 47.84v54.7h153.72c15.27-32.71 37.94-46.24 66.49-39.82 25.76 5.8 43.66 28.24 43.52 54.56-0.14 26.15-18.33 48.27-44.33 53.9-28.11 6.09-50.78-7.65-65.87-40.4h-9.09c-51.27 0-102.54 0.01-153.81-0.01-14.32-0.01-18.82-4.43-18.84-18.52-0.04-21.35-0.01-42.7-0.01-64.46h-27.19c-0.02 36.61-0.02 73.19-0.02 110.79zm-284.24-345.01c-3.27-11.93-7.43-21.11-8.02-30.51-1.16-18.46-0.55-37.05-0.28-55.58 0.34-23.31 18.16-41.42 41.46-41.46 101.96-0.18 203.92-0.17 305.88-0.01 23.78 0.04 41.49 18.11 41.86 41.98 0.21 13.61-0.18 27.23 0.11 40.83 0.33 15.19 0.4 30.19-10.44 42.07 14.77 21.77 14.75 85.47 0.53 111.79 8.79 13.48 8.79 13.49 24.68 13.48 23.46-0.01 46.93 0.21 70.39-0.08 51.87-0.62 96.16-37.39 107.13-88.64 10.64-49.71-15.16-101.45-61.66-123.11-23.33-10.86-47.63-13.55-72.83-7.56-13.25 3.15-18.62-0.35-21.93-13.61-0.35-1.4-0.74-2.79-1.08-4.2-24.15-100.47-114.11-176.14-217.35-179.29-99.69-3.04-174.14 40.81-222.56 128.21-6.26 11.29-9.3 12.6-22.18 11.76-12.05-0.79-24.37-1.41-36.29 0.1-66.24 8.4-117.86 64.72-120.34 130.47-2.61 69.08 43.06 129.46 110.22 142.27 22.75 4.34 46.69 2.16 70.02 3.88 11.19 0.83 19.66-1.08 23.64-12.62 0.18-0.53 0.36-1.06 0.52-1.59-14.26-23.15-14.27-88.03-1.48-108.58zm187.08-16.43c49.53 0 99.06 0.03 148.59-0.02 12.51-0.01 17.39-4.88 17.45-17.3 0.08-16.51 0.11-33.01-0.01-49.52-0.08-11.4-5.1-16.53-16.43-16.54-100.22-0.06-200.44-0.05-300.66 0-11.42 0.01-16.46 5.06-16.55 16.4-0.13 15.93-0.05 31.86-0.03 47.78 0.02 14.84 4.32 19.18 19.04 19.19 49.54 0.02 99.07 0.01 148.6 0.01zm-0.75 111.21c49.82 0 99.64 0.03 149.46-0.02 12.43-0.01 17.27-4.93 17.33-17.42 0.08-16.51 0.11-33.01-0.02-49.52-0.09-11.32-5.16-16.41-16.55-16.42-100.22-0.05-200.44-0.05-300.66 0-11.35 0.01-16.35 5.12-16.43 16.52-0.12 15.93-0.05 31.86-0.03 47.78 0.02 14.75 4.34 19.06 19.17 19.07 49.25 0.02 98.49 0.01 147.73 0.01zm-0.04 27.81c-49.82 0-99.64-0.03-149.46 0.02-12.5 0.01-17.31 4.86-17.37 17.34-0.08 16.51-0.1 33.01 0.01 49.52 0.08 11.36 5.12 16.48 16.48 16.49 100.22 0.06 200.44 0.06 300.66 0 11.35-0.01 16.41-5.14 16.5-16.48 0.12-15.93 0.05-31.86 0.03-47.78-0.02-14.77-4.34-19.1-19.13-19.11-49.24-0.01-98.48 0-147.72 0zm-333.74 181.19c0.22-15.19-11.91-27.83-27.07-28.22-15.49-0.39-28.42 12.19-28.46 27.69-0.03 15.14 12.31 27.63 27.49 27.81 15.02 0.19 27.82-12.27 28.04-27.28zm695.61-28.22c-15.14-0.21-27.8 12.04-28.11 27.17-0.32 15.48 12.31 28.34 27.84 28.34 15.03 0 27.66-12.6 27.69-27.63 0.03-15.19-12.25-27.67-27.42-27.88zm-334.1 152.73c-0.03-15.03-12.66-27.64-27.68-27.64-15.2 0-27.69 12.32-27.85 27.46-0.17 15.5 12.6 28.24 28.1 28.05 15.15-0.18 27.46-12.69 27.43-27.87zm-236.05 0.17c-15.21-0.1-27.77 12.12-28.04 27.26-0.27 15.5 12.4 28.33 27.9 28.25 15.15-0.08 27.55-12.49 27.62-27.68 0.08-15.03-12.47-27.74-27.48-27.83zm444.62 27.92c0.13-15.03-12.39-27.78-27.4-27.93-15.21-0.14-27.82 12.03-28.13 27.17-0.33 15.49 12.32 28.37 27.81 28.34 15.15-0.02 27.59-12.4 27.72-27.58z"/>
 <path class="st0" d="m401.34 400.16v-26.71h166.06v26.71h-166.06z"/>
 <path class="st0" d="m622.79 400.43h-26.67v-27.03h26.67v27.03z"/>
 <path class="st0" d="m678.7 373.42v26.78h-26.93v-26.78h26.93z"/>
 <path class="st0" d="m567.41 484.78v26.78h-165.75v-26.78h165.75z"/>
 <path class="st0" d="m623.07 484.82v26.7h-26.73v-26.7h26.73z"/>
 <path class="st0" d="m651.89 484.55h26.67v27.03h-26.67v-27.03z"/>
 <path class="st0" d="m567.44 596.03v26.72h-166.06v-26.72h166.06z"/>
 <path class="st0" d="m623.03 622.88h-26.83v-26.98h26.83v26.98z"/>
 <path class="st0" d="m678.64 622.88h-26.83v-26.98h26.83v26.98z"/>
</svg>
