<svg enable-background="new 0 0 1080 1080" version="1.1" viewBox="0 0 1080 1080" xmlns="http://www.w3.org/2000/svg">
 <style type="text/css">.st0{fill:#033DFF;}</style>
 <path class="st0" d="m230.94 152.53h10.6c6.79 3.76 13.65 7.39 20.36 11.28 56.78 32.9 117.24 42.2 181.35 28.49 32.97-7.05 62.25-22.42 90.69-39.77h12.12c5.63 3.24 11.27 6.47 16.89 9.74 72.49 42.17 147.76 48.08 225.39 16.2 17.33-7.12 33.44-17.21 50.12-25.93h10.6c15.01 5.77 19.96 16.89 19.91 32.62-0.35 119.13-0.21 238.27-0.19 357.4 0.02 77.72-20.48 149.52-63.27 214.43-58.76 89.14-141.09 144.45-245.04 167.72-8.94 2-18.68 3.67-27.53 2.25-53.52-8.58-102.68-28.65-147.91-58.47-50.61-33.37-91.22-76.35-121.46-128.75-35.81-62.07-52.75-129.19-52.47-200.97 0.45-117.87 0.28-235.74-0.07-353.61-0.05-15.75 4.91-26.86 19.91-32.63zm254.42 323.32c-1.36-1.15-3.26-2.66-5.06-4.28-11.99-10.83-24.08-21.56-35.85-32.62-3.16-2.97-5.81-3.66-9.11-0.98-9.73 7.91-20.95 14.59-28.86 24.03-33.96 40.53-46.89 87.9-38.94 139.85 9.46 61.85 44.31 106.25 102.3 128.6 66.37 25.58 127.67 12.33 178.76-37.31 38.51-37.42 55.15-84.4 48.78-138.28-3.82-32.32-19.58-59.85-39.32-84.77-22.87-28.87-47.53-56.32-70.76-84.92-14.36-17.67-26.45-36.94-32.58-59.26-1.85-6.72-2.96-13.64-4.52-20.95-18.5 7.85-33.73 19.04-44.98 35.2-14.21 20.41-19.27 43.67-19.75 68.02-0.45 22.44-0.11 44.89-0.11 67.67z"/>
</svg>
