<svg enable-background="new 0 0 1080 1080" version="1.1" viewBox="0 0 1080 1080" xmlns="http://www.w3.org/2000/svg">
 <style type="text/css">.st0{fill:#033DFF;}</style>
 <path class="st0" d="m462.81 978.12c-3.17-1.11-6.36-2.17-9.51-3.33-36.3-13.36-46.61-45.2-41.59-77.82 1.33-8.65 9.49-13.94 19.94-14.28 9.07-0.29 18.15-0.06 28.52-0.06v-10.61c0-33.37-0.02-66.73 0.03-100.1 0.01-3.4-0.05-6.93 0.77-10.18 1.58-6.32 6.44-10.52 12.47-9.05 4.42 1.08 8.63 5.42 11.55 9.34 1.71 2.29 0.89 6.61 0.9 10.01 0.05 33.08 0.03 66.16 0.03 99.24v10.72h411.75v-8.6c0-86.13 0.01-172.25-0.01-258.38 0-19.43-7.49-26.96-26.77-26.97-119.49-0.01-238.98-0.01-358.47 0-18.76 0-26.42 7.64-26.47 26.5-0.07 28.52 0 57.04-0.05 85.55-0.01 3.4 0.79 7.76-0.94 10-2.98 3.87-7.62 8.78-11.65 8.86-4.04 0.08-8.26-5.12-12.23-8.23-0.68-0.53-0.71-2.15-0.7-3.27 0.15-35.06-0.7-70.18 0.91-105.17 1.03-22.52 22.34-39.54 46.06-39.87 19.67-0.27 39.35-0.06 59.03-0.06 101.53 0 203.05-0.01 304.58 0 33.54 0 52.37 18.86 52.38 52.47 0.02 85.55 0.01 171.11 0.01 256.66v11.08c9.3 0 17.77-0.09 26.23 0.02 16.08 0.21 22.78 7.59 23.48 23.78 0.98 22.66-4.38 42.99-22.94 57.01-8.8 6.65-20.16 9.92-30.36 14.71-152.32 0.03-304.64 0.03-456.95 0.03zm483.65-69.35h-508.93c-4.57 23.3 12.19 43.6 36.21 43.62 145.36 0.12 290.72 0.12 436.08 0 23.97-0.02 39.94-19.13 36.64-43.62z"/>
 <path class="st0" d="m106.84 435.61c6.2-10.85 15.61-14.74 27.85-13.59 6.77 0.64 13.65 0.11 21.76 0.11v-10.28c0-86.13-0.01-172.27 0.01-258.4 0.01-32.38 19.18-51.55 51.57-51.56 120.07-0.02 240.15-0.02 360.22 0 31.87 0 51.34 19.21 51.47 50.92 0.12 29.38 0.04 58.75 0 88.13 0 2.55-0.06 5.17-0.63 7.63-1.59 6.77-6.29 10.34-13.02 9.92-6.68-0.42-11.15-4.31-11.74-11.36-0.38-4.53-0.23-9.12-0.23-13.68-0.02-26.52 0.05-53.05-0.03-79.57-0.05-18.58-7.95-26.32-26.7-26.32-119.5-0.01-239-0.01-358.51 0-19.21 0-26.74 7.61-26.74 26.99-0.01 86.13 0 172.27 0 258.4v8.68h411.97v-9.69c0-33.65 0-67.31 0.01-100.96 0-2.57-0.08-5.15 0.17-7.69 0.72-7.33 4.83-11.47 12.2-11.71 7.45-0.24 12.05 3.91 12.83 11.05 0.77 7.05 0.43 14.23 0.44 21.36 0.03 29.38 0.01 58.75 0.01 88.13v10.03c9.73 0 18.5-0.1 27.27 0.02 14.12 0.19 22.23 7.51 22.08 21.49-0.11 10.45-0.47 21.33-3.42 31.22-7.84 26.32-32.18 42.7-61.45 42.73-80.43 0.07-160.86 0.03-241.29 0.03h-186.53c-37.32 0-58.03-15.53-68.71-51.45-0.16-0.53-0.57-0.98-0.86-1.47v-29.11zm26.34 12.56c-2.83 26.12 13.32 43.76 39.59 43.76 143.4 0.03 286.8 0.02 430.2 0.01 2 0 4 0.05 5.98-0.1 22.42-1.72 38.47-22.54 33.32-43.67h-509.09z"/>
 <path class="st0" d="m825.6 476.25c4.25-4.51 8.31-9.21 12.78-13.47 6.43-6.12 13.52-6.2 18.9-0.65 5.07 5.23 5.14 12.41-0.62 18.35-12.11 12.49-24.41 24.8-36.91 36.9-6.06 5.87-12.96 5.84-19.03-0.05-12.49-12.11-24.79-24.42-36.89-36.92-5.67-5.86-5.54-13.25-0.46-18.38 5.25-5.3 12.27-5.5 18.25 0.27 4.68 4.52 8.62 9.8 12.89 14.75 1-0.5 2.01-1 3.01-1.5v-7.9c0-45.92 0.05-91.84-0.02-137.76-0.04-27.71-14.48-41.99-42.33-42.03-25.39-0.04-50.77 0.02-76.16-0.05-3.11-0.01-6.34-0.1-9.3-0.9-6.36-1.73-9.38-6.44-9.01-12.83 0.37-6.43 4-10.8 10.56-11.5 5.65-0.6 11.39-0.38 17.09-0.39 22.53-0.03 45.07-0.07 67.6 0 41.26 0.13 67.09 25.99 67.19 67.45 0.12 45.35 0.03 90.7 0.03 136.05v9.3c0.81 0.43 1.62 0.85 2.43 1.26z"/>
 <path class="st0" d="m254.16 602.99c-4.03 4.61-7.8 9.48-12.15 13.77-6.7 6.61-14.06 6.8-19.54 1.05-5.12-5.36-4.78-12.71 1.39-19.02 11.76-12.02 23.61-23.96 35.67-35.69 6.73-6.55 13.47-6.43 20.29 0.23 12.03 11.76 23.92 23.65 35.67 35.68 6.23 6.39 6.41 13.56 1.06 18.98-5.38 5.45-12.53 5.29-18.94-0.83-4.47-4.26-8.54-8.94-14.21-14.93-0.46 4.47-0.86 6.56-0.86 8.66-0.04 23.95-0.15 47.89 0.01 71.84 0.16 24.8 15.32 39.84 40.1 39.93 25.37 0.09 50.74 0.02 76.11 0.02 2.28 0 4.57-0.06 6.84 0.06 8.24 0.45 13.5 5.14 13.79 12.22 0.29 6.92-5.02 13.26-12.83 13.26-32.19 0-64.5 1.1-96.53-1.32-29.6-2.23-51.84-28.08-52.82-57.91-0.82-25.06-0.3-50.16-0.36-75.25-0.01-3.02 0-6.04 0-9.06-0.9-0.55-1.79-1.12-2.69-1.69z"/>
 <path class="st0" d="m267.82 384.32c-11.39 0-22.78 0.1-34.17-0.03-9.65-0.11-14.52-4.39-14.64-13.88-0.28-23.35-0.29-46.71 0.01-70.05 0.12-9.5 4.93-13.68 14.74-13.73 22.78-0.11 45.57-0.12 68.35 0.01 9.95 0.06 14.71 4.63 14.8 14.69 0.21 22.78 0.22 45.57-0.01 68.35-0.1 9.97-4.98 14.51-14.9 14.62-11.39 0.13-22.78 0.02-34.18 0.02zm-22.75-71.7v45.53h45.65v-45.53h-45.65z"/>
 <path class="st0" d="m218.89 213.04c0-11.1-0.17-22.21 0.05-33.31 0.21-10.84 4.38-15.12 15.08-15.2 22.49-0.17 44.99-0.16 67.48 0 10.99 0.08 15.38 4.6 15.45 15.82 0.14 21.92 0.13 43.85 0 65.77-0.07 11.51-4.7 16.22-16.07 16.29-22.21 0.13-44.42 0.15-66.63-0.01-10.51-0.08-15.09-4.65-15.31-15.18-0.23-11.39-0.05-22.79-0.05-34.18zm71.87 23.33v-45.66h-45.58v45.66h45.58z"/>
 <path class="st0" d="m455.99 176.98c26.78 0 53.56-0.04 80.33 0.02 10.42 0.02 15.8 4.32 15.93 12.44 0.13 8.33-5.67 13.18-16.3 13.19-53.84 0.05-107.68 0.06-161.52-0.01-10.06-0.01-15.86-4.79-16.03-12.68-0.18-8.17 5.74-12.92 16.4-12.94 27.07-0.05 54.13-0.02 81.19-0.02z"/>
 <path class="st0" d="m456.03 324.5c-27.06 0-54.13 0.03-81.19-0.01-10.62-0.02-16.57-4.77-16.44-12.94 0.13-7.89 5.94-12.67 15.98-12.68 54.13-0.06 108.26-0.02 162.38-0.04 7.58 0 13.64 2.35 15.22 10.59 1.3 6.77-1.71 11.8-8.05 14.25-2.54 0.98-5.6 0.8-8.42 0.8-26.5 0.05-52.99 0.03-79.48 0.03z"/>
 <path class="st0" d="m431.16 346.4c18.53 0 37.07-0.06 55.6 0.02 10.31 0.04 15.7 4.55 15.65 12.76-0.05 8.09-5.65 12.83-15.76 12.85-37.35 0.07-74.71 0.07-112.06 0-10.53-0.02-16.45-5.08-16.16-13.4 0.27-7.91 5.87-12.2 16.28-12.23 18.81-0.04 37.63 0.01 56.45 0z"/>
 <path class="st0" d="m429.82 249.79c-18.81 0-37.63 0.14-56.44-0.05-9.8-0.1-15.48-5.54-14.96-13.59 0.48-7.34 5.74-11.82 14.94-11.94 16.81-0.2 33.63-0.07 50.45-0.07 21.09 0 42.19 0.03 63.28 0 6.46-0.01 11.99 1.74 14.58 8.23 3.54 8.87-2.85 17.19-13.71 17.34-19.37 0.26-38.75 0.08-58.14 0.08z"/>
 <path class="st0" d="m865.16 756.46c0 18.82 0.06 37.63-0.02 56.45-0.04 9.65-4.51 15.11-12.24 15.37-7.98 0.27-13.32-5.6-13.35-15.33-0.1-37.63-0.09-75.27 0-112.9 0.02-9.75 5.32-15.61 13.31-15.36 7.74 0.24 12.24 5.7 12.28 15.32 0.08 18.81 0.02 37.63 0.02 56.45z"/>
 <path class="st0" d="m789.75 772.72c0-13.09-0.08-26.17 0.03-39.26 0.08-9.99 4.9-15.64 12.99-15.55 7.99 0.09 12.61 5.76 12.63 15.85 0.06 26.17 0.06 52.35 0 78.52-0.02 10.13-4.58 15.84-12.5 16.02-8.21 0.19-13.08-5.77-13.13-16.32-0.07-13.08-0.02-26.17-0.02-39.26z"/>
 <path class="st0" d="m562.92 645.89c-11.12 0-22.23 0.15-33.35-0.05-9.67-0.17-15.65-5.65-15.28-13.52 0.35-7.5 6.08-12.05 15.58-12.08 22.23-0.06 44.46-0.07 66.69 0 9.59 0.03 15.03 4.6 15.17 12.37 0.15 8.06-5.53 13.07-15.47 13.23-11.11 0.18-22.23 0.05-33.34 0.05z"/>
 <path class="st0" d="m562.8 695.6c-11.12 0-22.23 0.11-33.35-0.03-9.28-0.12-15.08-5.11-15.19-12.69-0.11-7.6 5.7-12.85 14.86-12.89 22.8-0.11 45.61-0.13 68.41 0.01 8.7 0.05 14.12 5.1 14.21 12.56 0.09 7.51-5.27 12.8-13.89 12.98-11.67 0.24-23.37 0.06-35.05 0.06z"/>
 <path class="st0" d="m690.23 781.46c0-10.81-0.11-21.62 0.03-32.43 0.12-9.09 4.54-14.15 12.19-14.42 7.88-0.27 13.27 5.13 13.36 14.3 0.2 21.62 0.19 43.24 0.01 64.86-0.08 9.1-5.55 14.74-13.25 14.51-7.48-0.22-12.19-5.54-12.31-14.39-0.14-10.8-0.03-21.62-0.03-32.43z"/>
 <path class="st0" d="m765.67 798.28c0 5.42 0.17 10.84-0.04 16.25-0.34 8.5-5.66 13.96-13.13 13.78-7.21-0.17-12.27-5.39-12.43-13.51-0.22-11.4-0.25-22.81 0.03-34.2 0.18-7.5 5.34-12.63 12.13-12.92 7.15-0.31 12.64 4.86 13.4 12.65 0.06 0.57 0.04 1.14 0.04 1.71v16.24z"/>
 <path class="st0" d="m665.81 802.62c-0.01 4.82 0.49 9.71-0.12 14.45-0.95 7.32-6.8 11.9-13.67 11.11-7.23-0.84-11.3-5.12-11.47-12.43-0.21-9.08-0.25-18.18 0.02-27.25 0.22-7.26 4.28-11.59 11.54-12.35 6.98-0.73 12.67 3.76 13.59 11.17 0.62 5.02 0.12 10.19 0.11 15.3z"/>
</svg>
