<svg enable-background="new 0 0 1080 1080" version="1.1" viewBox="0 0 1080 1080" xmlns="http://www.w3.org/2000/svg">
 <style type="text/css">.st0{fill:#033DFF;}</style>
 <path class="st0" d="m963.87 95.06c15.39 6.14 21.06 17.44 21.03 33.98-0.32 182.73-0.2 365.46-0.2 548.19 0 24.63-9.53 34.22-34.06 34.22-73.85 0.01-147.69 0.01-221.54 0-23.88 0-33.88-9.93-33.88-33.66-0.01-182.44 0.12-364.88-0.22-547.33-0.03-16.6 4.95-28.59 20.41-35.41 82.82 0.01 165.64 0.01 248.46 0.01zm-123.34 151.59c29.24 0 58.47 0.06 87.71-0.03 9.33-0.03 12.07-2.59 12.18-11.79 0.2-17.65 0.17-35.31 0.02-52.97-0.08-9.81-2.73-12.47-12.42-12.48-58.76-0.07-117.52-0.07-176.28 0-9.63 0.01-12.04 2.69-12.08 12.7-0.07 17.08-0.06 34.16-0.01 51.23 0.03 11.02 2.25 13.3 13.18 13.32 29.23 0.07 58.47 0.03 87.7 0.02zm-0.9 160h26.06c0.58 0 1.16-0.01 1.74-0.05 9.69-0.65 15.65-6.18 16.21-15.8 0.42-7.21 0.39-14.48 0.03-21.7-0.48-9.58-6.29-15.96-15.89-16.21-18.51-0.47-37.06-0.48-55.57 0.02-9.75 0.26-15.19 6.46-15.61 16.3-0.3 6.93-0.29 13.9-0.01 20.84 0.43 10.79 6.05 16.26 17.01 16.55 8.65 0.22 17.35 0.03 26.03 0.05zm0.59 23.56c-8.95 0-17.9-0.16-26.84 0.04-10.69 0.24-16.41 5.9-16.82 16.67-0.27 6.92-0.28 13.86 0.03 20.77 0.45 10.08 6.37 16.19 16.4 16.35 17.89 0.29 35.79 0.27 53.68 0.01 10.37-0.15 16.58-6.44 17.02-16.82 0.3-6.91 0.33-13.87-0.02-20.77-0.51-10.01-6.61-15.92-16.6-16.19-8.95-0.24-17.9-0.05-26.85-0.06zm0.28 130.9c8.98 0 17.96 0.22 26.92-0.06 9.63-0.3 15.63-6.1 16.21-15.72 0.41-6.92 0.33-13.9 0.07-20.84-0.39-10.5-6.34-16.94-16.81-17.16-17.94-0.38-35.9-0.38-53.85 0-10.26 0.22-16.05 6.3-16.47 16.41-0.3 7.22-0.32 14.49 0.04 21.71 0.5 9.81 6.21 15.34 16.09 15.62 9.27 0.27 18.54 0.05 27.8 0.04zm-1.08 76.06h85.11c2.03 0 4.06 0.06 6.08-0.05 5.75-0.31 9.41-3.22 9.51-9.11 0.1-5.95-3.68-8.78-9.28-9.4-1.72-0.19-3.47-0.11-5.21-0.11-57.03 0-114.06-0.02-171.09 0.03-2.86 0-6.37-0.43-8.43 1-2.73 1.9-6.17 5.59-5.93 8.21 0.28 3.18 3.64 6.61 6.51 8.83 1.69 1.3 5.02 0.58 7.62 0.59 28.37 0.02 56.74 0.01 85.11 0.01zm79.19-364.62v-0.06c-4.9 0-9.81-0.26-14.69 0.07-5.62 0.38-10.07 3.81-9 9.26 0.69 3.49 5.14 8.42 8.39 8.83 9.35 1.18 19.06 1.17 28.41-0.04 3.17-0.41 7.92-5.82 7.89-8.91-0.03-3.08-4.63-7.34-8.18-8.81-3.69-1.53-8.5-0.34-12.82-0.34z"/>
 <path class="st0" d="m95.1 810.93c6.04-16.37 17.98-22.21 35.1-22.18 157.48 0.29 314.97 0.17 472.45 0.17 25.01 0 34.79 9.71 34.79 34.54 0.01 42.56 0.01 85.11 0 127.67-0.01 23.6-10.09 33.55-33.97 33.55-157.19 0.01-314.39-0.18-471.58 0.26-17.3 0.05-29.68-5.05-36.78-21.11-0.01-50.96-0.01-101.93-0.01-152.9zm270.14 128.45h18.23c18.23-0.01 36.45 0.03 54.68-0.04 6.04-0.02 10.31-2.88 10.42-9.16 0.11-6.27-4.02-9.22-10.08-9.51-2.02-0.1-4.05-0.04-6.07-0.04h-98.94c-13.02 0-26.06-0.44-39.04 0.33-3.48 0.21-7.99 3.44-9.67 6.55-1.16 2.16 0.8 7.45 3.04 9.57 2.09 1.98 6.4 2.19 9.73 2.22 22.57 0.16 45.14 0.07 67.7 0.08zm100.63-43.32c1.72 0 3.45-0.03 5.17 0.01 6.52 0.14 10.87-2.95 10.84-9.48-0.04-6.14-4.52-8.95-10.45-9.13-4.02-0.12-8.07-0.23-12.06 0.13-5.59 0.51-9.32 3.73-9.12 9.47 0.2 5.61 3.79 8.78 9.58 8.98 2.01 0.07 4.02 0.01 6.04 0.02zm-266.2-0.07v0.06h6.04c6.17-0.01 10.1-3.12 10.24-9.2 0.13-5.72-3.72-8.94-9.32-9.27-4.85-0.29-10.14-1-14.49 0.56-3.27 1.17-7.75 5.97-7.39 8.57 0.46 3.4 4.85 6.63 8.17 9.1 1.47 1.1 4.45 0.18 6.75 0.18zm33.76 43.37c1.73 0 3.45 0.02 5.18 0 5.99-0.09 10.39-2.84 10.59-8.96 0.22-6.65-4.29-9.6-10.66-9.75-3.45-0.08-6.9-0.06-10.35 0-5.96 0.1-10.36 2.74-10.54 8.97-0.2 6.7 4.21 9.6 10.61 9.74 1.71 0.03 3.44 0 5.17 0zm-66.55-18.56v-0.17c-1.72 0-3.45-0.05-5.17 0.01-6.34 0.21-10.85 3.09-10.61 9.78 0.22 6.16 4.63 8.88 10.6 8.93 4.31 0.03 9.07 1.03 12.79-0.47 3.33-1.34 7.83-5.7 7.62-8.39-0.27-3.4-4.39-6.99-7.64-9.47-1.63-1.25-5-0.22-7.59-0.22zm332.64 18.57c1.44 0 2.88-0.01 4.31 0 6.3 0.06 11.11-2.51 11.28-9.14 0.17-6.65-4.48-9.48-10.81-9.59-3.16-0.06-6.32-0.01-9.49-0.02-6.26-0.01-11.13 2.38-11.21 9.15-0.09 7.28 4.98 9.71 11.61 9.6 1.44-0.02 2.88 0 4.31 0zm66.26-0.19v0.18c1.72 0 3.45 0.06 5.16-0.01 6.29-0.24 10.77-2.95 10.56-9.75-0.19-6.33-4.65-8.81-10.51-8.94-4.3-0.1-9.16-1.13-12.74 0.5-3.42 1.56-7.33 5.9-7.6 9.29-0.22 2.7 4.36 6.35 7.53 8.52 1.76 1.2 5.02 0.21 7.6 0.21zm-233.19-43.29v0.1c2.58 0 5.84 0.99 7.6-0.21 3.35-2.3 7.66-5.6 8.12-8.96 0.36-2.64-3.97-7.82-7.07-8.63-5.32-1.4-11.63-1.34-16.89 0.21-2.97 0.88-6.38 5.95-6.44 9.2-0.05 2.72 4.08 6.1 7.09 8.07 1.8 1.19 5.01 0.22 7.59 0.22zm-66.63-0.04v0.07c2.87 0 6.39 1.05 8.45-0.24 3.24-2.04 7.16-5.4 7.64-8.67 0.39-2.6-3.49-7.89-6.24-8.48-5.97-1.3-12.63-1.27-18.58 0.08-2.63 0.6-6 5.85-5.81 8.77 0.19 2.96 3.98 6.23 6.96 8.25 1.76 1.19 5 0.22 7.58 0.22zm166.95-43.09c0.86 0 1.72-0.04 2.58 0.01 6.61 0.39 12.8-0.78 13-8.8 0.21-8.59-6.38-9.74-13.21-9.69-0.86 0.01-1.72 0-2.58 0-6.99 0.02-14.59-0.55-15.76 9.05-0.79 6.55 4.47 9.44 15.97 9.43zm-34.17 43.18v0.12c2.01 0 4.02 0.01 6.02 0 5.97-0.02 10.17-2.47 10.44-8.86 0.27-6.43-3.84-9.35-9.71-9.66-4.84-0.25-10.15-0.91-14.43 0.74-3.16 1.22-7 6-6.83 8.98 0.17 3.03 4.59 6.22 7.76 8.49 1.52 1.09 4.45 0.19 6.75 0.19zm133.31 0.03v0.06c2.29 0 4.6 0.12 6.88-0.02 5.7-0.34 10.05-3.63 9.12-9.03-0.6-3.48-4.73-7.83-8.2-8.97-4.64-1.52-10.62-1.53-15.18 0.13-3.31 1.2-7.06 6.07-7.22 9.47-0.13 2.65 4.65 6 7.84 8.17 1.57 1.08 4.47 0.19 6.76 0.19zm-32.79-43.21c1.72 0 3.44-0.05 5.16 0.01 6.1 0.22 10.37-2.56 10.69-8.64 0.35-6.73-4.27-9.57-10.55-9.76-4.01-0.12-8.04-0.16-12.03 0.16-5.68 0.46-9.19 3.69-8.93 9.48 0.26 5.73 3.83 8.68 9.64 8.73 2 0.02 4.01 0.01 6.02 0.02zm66.09-0.03c2.32 0 5.19 0.87 6.83-0.18 3.48-2.22 8.09-4.95 9.02-8.36 1.53-5.57-2.77-9.13-8.46-9.62-4.59-0.4-9.27-0.37-13.87 0.01-5.71 0.47-10 3.95-8.41 9.59 0.96 3.41 5.51 6.06 8.9 8.41 1.39 0.94 3.96 0.15 5.99 0.15zm-266.17-0.16v0.14c2.61 0 5.87 0.99 7.67-0.21 3.4-2.27 7.77-5.53 8.28-8.9 0.39-2.55-4.14-7.72-7.3-8.51-5.39-1.36-11.68-1.18-17.08 0.27-2.78 0.75-6.22 5.72-6.1 8.65 0.13 2.94 3.9 6.31 6.86 8.34 1.79 1.21 5.07 0.22 7.67 0.22zm66.71 0.11v0.07h6.08c5.72-0.01 9.61-2.45 10.01-8.46 0.43-6.55-3.59-9.5-9.58-9.83-4.6-0.26-9.76-1.12-13.71 0.54-3.42 1.44-7.32 5.93-7.56 9.32-0.19 2.58 4.72 6 7.95 8.17 1.58 1.08 4.49 0.19 6.81 0.19zm-132.79 0.02v0.05h6.02c6.21 0.01 10.06-3.2 10.09-9.25 0.03-5.7-3.89-8.8-9.51-9.02-4.85-0.19-10.13-0.96-14.46 0.62-3.21 1.17-7.56 6.04-7.16 8.61 0.52 3.34 4.94 6.44 8.27 8.81 1.53 1.08 4.46 0.18 6.75 0.18zm-66.49 0v0.04c2.03 0 4.05 0.01 6.08 0 5.8-0.02 9.57-2.73 9.87-8.64 0.3-5.92-3.22-9.2-8.95-9.56-4.89-0.3-10.2-1.04-14.6 0.49-3.29 1.14-7.85 5.95-7.48 8.48 0.51 3.39 4.93 6.57 8.27 9 1.52 1.11 4.5 0.19 6.81 0.19z"/>
 <path class="st0" d="m95.1 254.91c0.55-1.31 1.2-2.59 1.65-3.94 7.25-21.78 22.32-32.79 45.52-32.84 46.91-0.09 93.81-0.03 140.72-0.03 108.29 0 216.58 0.56 324.87-0.35 31.45-0.26 50.91 22.27 50.68 50.65-0.89 107.7-0.36 215.42-0.37 323.13 0 32.21-17.72 50.05-49.82 50.08-44.59 0.05-89.18 0.01-133.77 0.01h-10.93v51.15c8.59 0 17.45 0.1 26.3-0.03 6.49-0.1 11.99 1.42 12.17 9.03 0.18 7.56-5.19 9.66-11.68 9.66-75.86 0.02-151.72 0.03-227.58-0.01-6.48 0-11.79-2.13-11.54-9.78 0.23-7.07 5.19-8.94 11.42-8.88 8.92 0.08 17.84 0.02 27.29 0.02v-51.15h-10.33c-42.56 0-85.15-0.87-127.68 0.31-28.01 0.78-47.66-8.64-56.9-36.04-0.02-117-0.02-233.99-0.02-350.99zm544.03 271.54c0.21-3.41 0.5-5.94 0.5-8.48 0.02-83.66 0.05-167.32 0-250.98-0.01-20.79-10.04-30.59-31.12-30.6-154.58-0.02-309.16-0.03-463.75 0-21.05 0-30.91 9.82-30.92 30.72-0.03 83.37-0.02 166.74 0.01 250.11 0 3.03 0.27 6.06 0.43 9.23h524.85zm-195.47 165.83v-49.95h-134.11v49.95h134.11zm-66.36-117.2v-0.15c-3.16 0-6.92-1.09-9.33 0.26-3.5 1.96-7.71 5.24-8.59 8.72-1.42 5.58 2.99 9.08 8.52 9.49 5.99 0.45 12.34 1.15 17.97-0.35 3.4-0.9 7.56-5.56 7.97-8.95 0.33-2.68-4.03-6.8-7.24-8.75-2.31-1.39-6.15-0.27-9.3-0.27z"/>
 <path class="st0" d="m849.73 899.56c-0.51 10.67 0.11 21.53-1.73 31.96-5.84 33.07-35.12 55.5-67.85 52.96-32.22-2.5-57.75-28.92-59.11-61.93-0.64-15.59-0.55-31.24-0.06-46.84 0.71-22.43 16.84-39.61 39.21-40.93 16.42-0.97 32.99-0.98 49.41-0.06 23.33 1.31 39.27 18.92 39.62 42.26 0.11 7.52 0.02 15.04 0.02 22.56 0.16 0 0.32 0.01 0.49 0.02zm-73.73-14.21c0 2.01 0.06 4.02-0.01 6.03-0.24 6.46 2.56 10.97 9.19 11.02 6.2 0.05 9.01-4.29 9.1-10.31 0.06-4.02 0.1-8.04 0.01-12.06-0.13-6.32-2.73-10.78-9.7-10.47-6.46 0.29-8.72 4.65-8.6 10.62 0.04 1.72 0.01 3.44 0.01 5.17z"/>
</svg>
