<svg enable-background="new 0 0 1080 1080" version="1.1" viewBox="0 0 1080 1080" xmlns="http://www.w3.org/2000/svg">
 <style type="text/css">.st0{fill:#033DFF;}</style>
 <path class="st0" d="m540.2 602.75c-16.82-5.35-33.59-10.86-50.5-15.91-2.69-0.8-7.12-0.74-8.83 0.9-43.6 42.01-86.94 84.28-130.3 126.48 45.44 50.86 34.38 115.65-2.56 150.89-39.34 37.54-99.94 39.48-141.69 4.52-40.89-34.24-49.44-95.26-19.78-139.52 28.75-42.9 89.08-63.92 146.62-30.11 44.4-43.17 89.03-86.58 133.87-130.19-31.29-37.79-35.49-77.72-12.27-120.95-47.44-38.26-94.8-76.47-142.02-114.57-44.49 29.29-84.95 27.62-114.98-4.4-26.85-28.63-29.1-72.66-5.32-103.84 23.85-31.27 66.92-40.95 101.54-22.83 40.15 21.02 51.4 59.21 33.06 113.95 46.84 37.79 93.91 75.77 141.51 114.17 38.39-32.06 79.25-36.51 124.39-11.13 49.19-57.13 98.72-114.66 148.14-172.06-43.97-54.72-24-112.81 7.63-140.37 35.93-31.31 90.73-32.42 126.93-1.81 38.57 32.62 46.7 87.07 19.24 128.93-29.25 44.59-79.59 55.09-137.06 27.95-48.97 56.88-98.12 113.97-147.88 171.78 28.92 36.31 34.08 75.3 11.96 117.3 54.07 41.41 107.79 82.56 161.28 123.53 45.74-27.99 83.04-25.64 110.25 6.45 23.43 27.64 23.38 68.68-0.12 96.65-23.4 27.86-63.81 34.52-95.28 16.03-25.97-15.25-49.85-52.55-27.81-100.94-53.74-41.18-107.7-82.53-160.33-122.86-15.02 9.16-28.85 17.6-44.66 27.24 11.17 69.4 22.75 141.33 34.41 213.77 21.95 0.92 41.93 5.9 59.27 19.03 33.22 25.16 45.55 68.68 30.21 107.36-14.99 37.83-54.2 62.01-93.33 57.58-43.38-4.92-76.6-35.94-82.89-77.41-6.22-41.07 15.36-81.27 53.79-97.52 9.7-4.1 10.76-8.81 9.24-17.95-10.77-64.56-21.04-129.19-31.5-193.8-0.48-2.97-1.22-5.89-1.83-8.83-0.8 0.84-1.6 1.67-2.4 2.49z"/>
</svg>
