<svg enable-background="new 0 0 1080 1080" version="1.1" viewBox="0 0 1080 1080" xmlns="http://www.w3.org/2000/svg">
 <style type="text/css">.st0{fill:#033DFF;}</style>
 <path class="st0" d="m110.48 630.61c4.13-6.58 10.06-8.5 17.73-8.46 47.25 0.26 94.51 0.13 141.76 0.13h9.97v-41.52c0.01-16.13 3.04-19.24 18.87-19.24 62.63-0.01 125.26-0.05 187.9 0.08 5.49 0.01 9.03-0.74 11.35-6.84 4.12-10.87 12.34-18.67 23.12-23.03 5.06-2.05 6.54-4.83 6.34-9.99-0.37-9.72-0.11-19.47-0.11-30.25h-9.82-103.18c-2.24 0-4.49 0.13-6.71-0.1-7.13-0.73-11.41-4.83-11.76-11.88-0.36-7.14 3.82-11.52 10.69-12.89 2.97-0.59 6.13-0.29 9.2-0.29 129.18-0.01 258.36-0.01 387.54-0.01 12.03 0 12.04-0.01 12.04-11.89 0.01-35.23-0.21-70.46 0.16-105.69 0.08-7.91-2.68-9.98-10.22-9.97-176.99 0.16-353.98 0.15-530.98 0.02-6.96-0.01-10 1.7-9.93 9.38 0.33 36.35 0.28 72.7 0.03 109.05-0.05 6.81 1.96 9.35 9.06 9.25 24.32-0.35 48.65-0.33 72.97 0.06 4.11 0.06 9.58 1.46 11.89 4.31 2.47 3.04 3.93 9.67 2.21 12.64-2.17 3.77-7.94 7.56-12.25 7.67-26.83 0.68-53.68 0.56-80.52 0.22-15.83-0.2-28.17-12.54-28.28-28.41-0.28-39.98-0.26-79.97-0.03-119.95 0.09-16.29 12.08-28.12 28.65-29.17 3.58-0.23 7.18-0.03 11.26-0.03v-25.54c-3.68 0-7.22 0.13-10.75-0.02-17.14-0.73-29.14-12.94-29.21-30.33-0.16-38.86-0.15-77.73-0.01-116.6 0.07-18.79 12.25-30.75 31.21-30.78 55.08-0.09 110.17-0.03 165.25-0.03h369.92c23.87 0 34.71 10.9 34.72 34.9 0.02 35.79 0.02 71.58 0 107.37-0.01 24.56-10.5 35.16-35.06 35.52-1.39 0.02-2.79 0.13-4.82 0.23v25.21c2.97 0 6.17-0.09 9.37 0.01 18.36 0.59 30.39 12.55 30.46 30.86 0.15 38.59 0.14 77.17 0.01 115.76-0.06 19.33-12.09 31.09-31.69 31.1-81.65 0.06-163.29 0.03-244.94 0.03h-11.23c0 11.97-0.25 23.31 0.25 34.62 0.08 1.81 3.2 4.08 5.4 5.11 10.85 5.05 19.27 12.61 23.74 23.7 2.16 5.35 5.03 6.76 10.56 6.74 62.91-0.2 125.82-0.13 188.74-0.12 15.43 0 18.68 3.24 18.69 18.59 0.01 13.67 0 27.33 0 42.17h9.32c47.53 0 95.07-0.01 142.6 0.01 13.57 0.01 17.54 3.94 17.54 17.38 0.01 81.37 0.01 162.73 0 244.1 0 14.15-3.79 18.05-17.78 18.07-31.88 0.05-63.75 0.02-95.63 0.02h-9.79v42.5c6.76 0 13.62 0.16 20.48-0.04 7.04-0.21 13.75 0.31 16.86 7.91 3.06 7.5-1.29 12.63-6.41 17.31h-179.53c-5.2-4.61-9.56-9.73-6.53-17.25 3.06-7.6 9.76-8.18 16.82-7.97 6.87 0.2 13.75 0.04 20.62 0.04v-42.5h-9.74c-31.87 0-63.74 0.03-95.61-0.02-14.06-0.02-17.85-3.88-17.85-17.96-0.01-81.08-0.01-162.15 0-243.23 0-14.71 3.61-18.36 18.19-18.37 47.25-0.01 94.49-0.01 141.74-0.01h9.03v-35.23c-2.12-0.14-3.75-0.35-5.39-0.35-59.27-0.02-118.54 0.05-177.81-0.14-5.13-0.02-7.05 2.03-9.06 6.35-8.34 17.93-22.88 27.44-42.51 27.31-19.27-0.13-33.67-9.59-41.66-27.26-2.45-5.42-5.53-6.38-10.76-6.37-57.87 0.15-115.74 0.09-173.61 0.11-2.67 0-5.34 0.29-7.87 0.43v35.15h9.73c47.25 0 94.49-0.01 141.74 0.01 13.48 0.01 17.4 3.95 17.4 17.49 0.02 81.36 0.01 162.71 0 244.07 0 14.1-3.79 17.97-17.84 17.99-31.87 0.05-63.74 0-95.61 0.04-3.23 0-6.46 0.29-9.79 0.44v42.07c8.95 0 17.31-0.23 25.66 0.07 7.79 0.28 13.68 5.79 12.39 12.68-0.83 4.42-4.63 8.28-7.1 12.39h-179.53c-5.14-4.65-9.48-9.77-6.44-17.28 3.08-7.59 9.77-8.14 16.81-7.94 6.86 0.2 13.73 0.04 20.62 0.04v-42.5h-9.69c-31.55 0-63.11-0.14-94.66 0.1-7.7 0.06-14.28-1.3-18.93-7.93 0.02-87.82 0.02-175.62 0.02-263.43zm663.98-342.33h-9.45c-25.44 0-50.88 0.09-76.31-0.05-10.47-0.06-16.76-7-14.37-15.75 2.02-7.41 7.65-9.45 14.84-9.42 38.86 0.12 77.71-0.08 116.57 0.18 7.12 0.05 9.89-1.92 9.82-9.46-0.31-36.34-0.28-72.68-0.02-109.02 0.05-6.88-2.09-9.22-9.12-9.22-177.51 0.15-355.01 0.16-532.52-0.02-7.56-0.01-9.49 2.64-9.44 9.76 0.28 35.22 0.12 70.44 0.13 105.66 0 12.16 0.01 12.17 11.87 12.17h343.83c13.75 0 19.82 3.79 19.88 12.4 0.06 8.64-6.29 12.76-19.71 12.76h-305.25-9.46v25.01h468.71v-25zm169.54 359.75h-312.83v177.52c26.56 0 52.53-0.1 78.5 0.05 9.79 0.05 15.23 5.07 15.01 13.07-0.21 7.68-5.4 11.98-14.97 12.01-23.2 0.08-46.4 0.03-69.59 0.03h-9.11v25.43h312.91v-25.43h-10.24c-53.66 0-107.33 0.03-160.99-0.05-8.56-0.01-14.03-4.91-14.22-12.08-0.19-7.06 5.33-12.37 13.63-12.97 2.5-0.18 5.03-0.06 7.54-0.06h154.28 10.08v-177.52zm-495.23 177.16v-177.29h-312.62v177.29h312.62zm-312.89 50.84h313v-24.68h-313v24.68zm189.16 68.06v-41.76h-64.84v41.76h64.84zm430.03-41.79v41.55h64.92v-41.55h-64.92zm-215.14-349.48c-11.78 0.03-21.47 9.76-21.27 21.37 0.19 11.24 9.72 20.8 20.96 21.02 11.5 0.22 21.56-9.58 21.69-21.13 0.13-11.64-9.58-21.29-21.38-21.26z"/>
 <path class="st0" d="m379.02 364.8c20.68-0.01 41.36-0.09 62.05 0.02 18.22 0.1 26.69 8.6 26.78 26.63 0.04 8.38 0.14 16.77-0.03 25.15-0.3 14.4-9.24 24.02-23.47 24.1-43.6 0.25-87.2 0.26-130.8-0.01-14.18-0.09-23.12-9.75-23.42-24.17-0.19-8.94-0.14-17.89-0.02-26.83 0.22-15.52 8.87-24.6 24.36-24.82 21.51-0.28 43.03-0.06 64.55-0.07zm-63.37 50.19h126.41v-24.49h-126.41v24.49z"/>
 <path class="st0" d="m777.06 415.75c7.05-0.11 12.93 5.69 12.79 12.6-0.13 6.54-5.83 12.25-12.35 12.39-6.89 0.15-12.77-5.78-12.68-12.77 0.09-6.74 5.47-12.11 12.24-12.22z"/>
 <path class="st0" d="m599.42 415.75c6.72 0.05 12.29 5.44 12.48 12.08 0.19 6.8-5.84 12.96-12.65 12.91-6.94-0.05-12.58-6.03-12.32-13.08 0.23-6.76 5.69-11.97 12.49-11.91z"/>
 <path class="st0" d="m658.65 415.75c6.83 0.01 12.16 5.21 12.34 12.03 0.19 7.06-5.49 12.99-12.42 12.96-6.82-0.03-12.8-6.26-12.53-13.04 0.28-6.66 5.88-11.96 12.61-11.95z"/>
 <path class="st0" d="m717.66 364.96c7.18-0.16 12.79 5.33 12.72 12.45-0.07 6.75-5.36 12.1-12.12 12.26-6.88 0.16-12.27-4.82-12.62-11.66-0.37-7.29 4.79-12.89 12.02-13.05z"/>
 <path class="st0" d="m611.89 377.61c-0.2 6.93-6.29 12.45-13.3 12.05-6.81-0.39-11.83-5.84-11.68-12.68 0.16-7.14 5.91-12.39 13.13-12.01 6.68 0.36 12.04 6.08 11.85 12.64z"/>
 <path class="st0" d="m671 376.9c0.2 7.2-5.23 12.82-12.38 12.81-6.63 0-12.32-5.44-12.57-12-0.26-6.86 5.57-12.77 12.59-12.76 6.89 0 12.16 5.1 12.36 11.95z"/>
 <path class="st0" d="m776.96 389.7c-7.09-0.18-12.53-6.07-12.13-13.13 0.38-6.73 5.93-11.79 12.76-11.63 6.68 0.16 12.18 5.67 12.24 12.27 0.05 6.91-5.87 12.66-12.87 12.49z"/>
 <path class="st0" d="m730.4 427.97c0.1 6.9-5.86 12.9-12.68 12.75-6.58-0.14-12.03-5.72-12.11-12.4-0.09-6.86 4.98-12.27 11.77-12.56 7.18-0.3 12.93 5.08 13.02 12.21z"/>
 <path class="st0" d="m379.33 161.25c20.68 0 41.37-0.09 62.05 0.02 17.56 0.09 26.34 8.89 26.46 26.26 0.06 8.38 0.12 16.77-0.02 25.15-0.25 15.31-9.05 24.27-24.64 24.68-12.01 0.31-24.03 0.08-36.05 0.08-29.63 0-59.25 0.04-88.88-0.02-19.76-0.04-28.13-8.4-28.17-27.97-0.02-7.83-0.12-15.65 0.03-23.48 0.28-15.32 9.21-24.48 24.67-24.66 21.51-0.25 43.03-0.06 64.55-0.06zm-63.83 50.37h126.62v-24.56h-126.62v24.56z"/>
 <path class="st0" d="m671.01 173.72c0.09 6.86-4.99 12.24-11.8 12.51-7.1 0.28-13.06-5.23-13.16-12.17-0.1-6.8 6.01-12.85 12.83-12.71 6.67 0.14 12.04 5.61 12.13 12.37z"/>
 <path class="st0" d="m777.07 186.24c-6.81-0.1-12.14-5.39-12.24-12.15-0.1-7 5.75-12.9 12.66-12.76 6.55 0.13 12.22 5.81 12.35 12.35 0.14 6.94-5.68 12.66-12.77 12.56z"/>
 <path class="st0" d="m599.62 212.43c6.68 0.14 12.22 5.65 12.27 12.22 0.06 6.84-6.01 12.78-12.88 12.6-6.74-0.17-12.04-5.59-12.11-12.36-0.06-7.15 5.51-12.61 12.72-12.46z"/>
 <path class="st0" d="m611.89 174.14c-0.14 6.95-6.11 12.41-13.23 12.09-6.79-0.3-11.89-5.76-11.76-12.58 0.13-6.72 5.58-12.21 12.24-12.3 6.83-0.11 12.89 5.98 12.75 12.79z"/>
 <path class="st0" d="m658.79 212.44c6.91 0.08 12.1 5.22 12.21 12.08 0.11 7.15-5.5 12.86-12.54 12.76-6.52-0.09-12.26-5.77-12.42-12.27-0.16-6.87 5.7-12.65 12.75-12.57z"/>
 <path class="st0" d="m789.83 224.75c-0.01 6.89-6.06 12.74-12.95 12.5-6.68-0.23-12.03-5.76-12.06-12.46-0.03-7.09 5.65-12.55 12.85-12.35 6.74 0.19 12.17 5.69 12.16 12.31z"/>
 <path class="st0" d="m730.39 174.02c-0.07 7.17-5.7 12.47-12.96 12.21-6.87-0.25-11.86-5.51-11.8-12.45 0.05-6.71 5.42-12.25 12.04-12.42 6.88-0.18 12.79 5.7 12.72 12.66z"/>
 <path class="st0" d="m717.59 237.25c-7.01-0.21-12.33-6.13-11.94-13.27 0.37-6.87 5.71-11.72 12.69-11.53 7.19 0.19 12.48 5.97 12.03 13.1-0.44 6.69-6.13 11.9-12.78 11.7z"/>
</svg>
