<svg enable-background="new 0 0 1080 1080" version="1.1" viewBox="0 0 1080 1080" xmlns="http://www.w3.org/2000/svg">
 <style type="text/css">.st0{fill:#033DFF;}</style>
 <path class="st0" d="m975.38 198.78v542.13c-8.2 25-25.99 33.3-51.49 33.09-91.48-0.74-182.97-0.29-274.46-0.29h-10.48v45.46h9.59c30.59 0 61.18 0.13 91.77-0.13 5.22-0.04 8.09 1.54 10.58 6.13 14.69 27.11 29.69 54.06 44.55 81.08 1.17 2.12 2.09 4.38 3.32 6.99h-517.47c17.09-30.95 33.51-60.94 50.37-90.68 1.17-2.07 5.57-3.23 8.48-3.25 30.87-0.23 61.75-0.14 92.62-0.14h8.99v-45.46h-11.22c-92.34 0-184.68 0.03-277.01-0.06-5.91-0.01-12.02-0.03-17.68-1.45-19.76-4.95-30.57-20.91-30.58-44.24-0.01-171.65-0.01-343.29 0-514.94 0-2.83-0.05-5.68 0.23-8.49 1.37-13.52 7.14-25.18 19.37-31.02 8.58-4.09 18.86-6.47 28.38-6.48 258.03-0.34 516.07-0.27 774.11-0.26 2.83 0 5.67-0.04 8.49 0.19 14.11 1.11 25.55 7.01 33.16 19.23 2.49 3.97 4.28 8.38 6.38 12.59zm-788.22 492.72h705.97v-442.73h-705.97v442.73z"/>
</svg>
