<?xml version="1.0" standalone="no"?>
<!DOCTYPE svg PUBLIC "-//W3C//DTD SVG 20010904//EN"
 "http://www.w3.org/TR/2001/REC-SVG-20010904/DTD/svg10.dtd">
<svg version="1.0" xmlns="http://www.w3.org/2000/svg"
 width="240.000000pt" height="240.000000pt" viewBox="0 0 240.000000 240.000000"
 preserveAspectRatio="xMidYMid meet">
<metadata>
Created by potrace 1.14, written by Peter Selinger 2001-2017
</metadata>
<g transform="translate(0.000000,240.000000) scale(0.100000,-0.100000)"
fill="#000000" stroke="none">
<path d="M897 2154 c-1 -1 -29 -4 -63 -7 -204 -19 -343 -172 -359 -396 l-5
-69 730 0 730 0 -5 57 c-3 31 -6 63 -8 71 -15 67 -22 90 -39 125 -31 61 -86
124 -137 157 -91 57 -122 61 -499 62 -189 1 -344 0 -345 0z"/>
<path d="M449 1686 c-2 -2 -31 -6 -64 -9 -165 -16 -303 -111 -357 -246 -23
-55 -23 -64 -23 -451 0 -362 2 -400 19 -450 56 -162 170 -257 335 -278 45 -6
344 -8 436 -3 20 1 20 7 20 235 l0 233 -131 0 c-151 0 -179 5 -196 36 -9 16
-12 137 -13 470 -1 409 -5 482 -26 463z"/>
<path d="M1933 1677 c-4 -6 -7 -211 -8 -457 -1 -473 -2 -484 -49 -496 -13 -3
-84 -6 -157 -7 l-134 -2 0 -232 c0 -199 2 -232 15 -235 29 -7 415 -1 464 6
149 23 257 119 310 277 l25 74 -2 380 c-2 209 -6 390 -10 403 -42 153 -183
266 -357 288 -25 3 -55 7 -67 9 -13 2 -26 -1 -30 -8z"/>
</g>
</svg>
