<svg viewBox="0 0 400 61.619" xmlns="http://www.w3.org/2000/svg"><style>.st1{fill:#f5f5f5}</style><path class="st1" d="M51.122 61.59h12.312c4.583 0 8.104-1.406 10.467-4.182 2.336-2.739 3.522-6.212 3.522-10.32V29.05c0-4.585-1.411-8.068-4.192-10.348-2.715-2.225-6.193-3.405-10.338-3.51l-.748-.03.017-.972c-.044-4.012-1.229-7.388-3.521-10.03l-.051-.058C56.287 1.47 52.92.013 49.424.025L42.166.05h-12.92c-4.578 0-8.1 1.384-10.464 4.113-2.293 2.645-3.478 6.018-3.522 10.03l.017.972-.748.031c-4.145.105-7.623 1.285-10.338 3.51C1.408 20.985 0 24.465 0 29.052V47.09c0 4.111 1.185 7.584 3.52 10.32 2.364 2.774 5.885 4.183 10.468 4.183H26.3V46.37h-8.538a2.414 2.414 0 0 1-2.412-2.412l-.068-28.697 36.41.005v-.005l10.45-.003-.068 28.698a2.414 2.414 0 0 1-2.411 2.411h-8.539V61.59zM127.049-.001V0l.008 49.364-22.845-.056a1.924 1.924 0 0 1-1.921-1.92V40.59H90.172v9.802c0 3.647 1.12 6.45 3.33 8.331 2.18 1.86 4.945 2.803 8.218 2.803h14.36c3.65 0 6.42-1.122 8.237-3.337 1.77-2.16 2.71-4.93 2.793-8.23l.025-.595.772.015c3.193-.034 5.879-.979 7.984-2.803 2.174-1.882 3.274-4.684 3.274-8.33V0zm29.778.082c-3.684 0-6.481 1.154-8.313 3.427-1.8 2.229-2.712 5.027-2.712 8.317v37.962c0 3.289.913 6.086 2.712 8.316 1.834 2.275 4.632 3.428 8.316 3.428h37.603V49.12h-33.8a2.528 2.528 0 0 1-2.526-2.526V15.016a2.528 2.528 0 0 1 2.526-2.525h33.797V.08zm56.774 0-2.681.005c-5.338.01-9.661 4.34-9.661 9.68v51.85h12.359V12.389h18.597c3.208 0 5.907 2.526 5.982 5.732a5.881 5.881 0 0 1-5.873 6.015H220.17v16.002l15.465 21.48h15.445L232.633 36.44c9.816-.162 17.762-8.145 17.872-17.973C250.616 8.355 242.23.081 232.118.081zM339.878 13.205l-1.183 2.562h1.528l2.355-2.562zm-41.093 3.067c-1.022 0-1.926.168-2.708.498a4.874 4.874 0 0 0-1.624 1.132 5.91 5.91 0 0 0-1.17 1.721c-.382.87-.574 1.943-.574 3.223 0 2.001.551 3.57 1.654 4.709 1.102 1.139 2.589 1.71 4.457 1.71 1.845 0 3.32-.573 4.422-1.72 1.102-1.144 1.654-2.732 1.654-4.76 0-2.047-.554-3.642-1.666-4.791-1.113-1.149-2.594-1.722-4.445-1.722zm71.197 0c-1.761 0-3.18.58-4.26 1.736-1.08 1.156-1.62 2.781-1.62 4.872 0 1.977.54 3.536 1.613 4.675 1.073 1.139 2.445 1.71 4.113 1.71 1.348 0 2.46-.333 3.337-.999.88-.665 1.506-1.683 1.882-3.055l-2.46-.779c-.21.92-.558 1.593-1.046 2.018-.486.43-1.064.643-1.74.643-.915 0-1.658-.335-2.228-1.01-.571-.673-.858-1.804-.858-3.392 0-1.496.29-2.58.87-3.247.578-.668 1.336-1.003 2.266-1.003.675 0 1.248.19 1.719.566s.782.89.93 1.542l2.511-.6c-.284-1.006-.714-1.778-1.285-2.314-.959-.909-2.207-1.363-3.744-1.363zm-106.16.216v12.563h2.538V16.488zm5.33 0v12.563h2.354v-8.194l5.066 8.194h2.545V16.488h-2.356v8.39l-5.141-8.39zm13.018 0v12.56h2.537v-5.337h5.246v-2.125h-5.246v-2.973h6.077v-2.125zm25.067 0v12.565h2.54v-5.245h.515c.583 0 1.007.046 1.277.14s.522.268.762.523c.24.252.687.869 1.338 1.845l1.834 2.735h3.033l-1.535-2.45c-.607-.977-1.088-1.657-1.445-2.04s-.808-.734-1.357-1.055c1.103-.16 1.93-.546 2.484-1.16s.83-1.394.83-2.337c0-.743-.184-1.4-.548-1.979-.367-.578-.853-.978-1.462-1.204-.607-.226-1.584-.338-2.927-.338zm12.982 0v12.563h2.358v-9.89l2.484 9.89h2.444l2.494-9.89v9.89h2.356V16.488h-3.806l-2.254 8.57-2.28-8.57zm18.622 0-4.894 12.563h2.691l1.038-2.854h5.022l1.097 2.854h2.759l-5.03-12.563zm8.51 0v2.125h3.727v10.438h2.535V18.613h3.72v-2.125zm11.894 0v12.563h2.538V16.488zm21.946 0-4.893 12.563h2.69l1.038-2.854h5.022l1.098 2.854h2.758l-5.029-12.563zm-82.38 1.95c1.048 0 1.886.355 2.517 1.064.631.709.947 1.783.947 3.223 0 1.457-.326 2.55-.974 3.278-.648.729-1.479 1.093-2.49 1.093s-1.842-.367-2.5-1.1c-.658-.734-.986-1.812-.986-3.235 0-1.445.318-2.528.959-3.247.638-.716 1.481-1.076 2.528-1.076zm10.966.173h1.979c1.027 0 1.644.014 1.85.043.41.068.73.234.955.494s.337.602.337 1.024c0 .376-.085.69-.257.943s-.408.43-.712.531c-.303.105-1.063.156-2.28.156h-1.872zm30.375.806 1.732 4.662h-3.43zm42.35 0 1.732 4.662h-3.429zm-72.755 15.88c-1.76 0-3.179.58-4.26 1.737-1.08 1.156-1.62 2.78-1.62 4.871 0 1.977.538 3.536 1.611 4.675 1.073 1.139 2.446 1.71 4.114 1.71 1.348 0 2.46-.333 3.337-.999.879-.665 1.505-1.683 1.882-3.055l-2.46-.78c-.212.921-.559 1.597-1.044 2.02-.486.429-1.064.642-1.74.642-.915 0-1.658-.334-2.229-1.01-.57-.672-.857-1.804-.857-3.392 0-1.496.289-2.58.87-3.248.577-.667 1.335-1.002 2.265-1.002.675 0 1.248.19 1.72.566.47.376.781.89.93 1.542l2.51-.6c-.283-1.006-.713-1.778-1.284-2.315-.959-.908-2.207-1.362-3.745-1.362zm26.18 0c-1.023 0-1.926.167-2.708.498a4.874 4.874 0 0 0-1.625 1.131 5.91 5.91 0 0 0-1.17 1.722c-.382.87-.573 1.943-.573 3.223 0 2.001.551 3.57 1.654 4.709 1.102 1.139 2.588 1.71 4.456 1.71 1.846 0 3.32-.574 4.422-1.72 1.103-1.144 1.654-2.732 1.654-4.76 0-2.047-.554-3.642-1.666-4.791-1.112-1.149-2.594-1.722-4.444-1.722zm25.074 0c-1.022 0-1.926.167-2.708.498a4.874 4.874 0 0 0-1.624 1.131 5.91 5.91 0 0 0-1.171 1.722c-.381.87-.573 1.943-.573 3.223 0 2.001.551 3.57 1.654 4.709 1.102 1.139 2.589 1.71 4.456 1.71 1.846 0 3.32-.574 4.422-1.72 1.103-1.144 1.654-2.732 1.654-4.76 0-2.047-.553-3.642-1.666-4.791-1.112-1.149-2.593-1.722-4.444-1.722zm14.245 0c-1.2 0-2.202.209-3.008.627-1.059.541-1.86 1.32-2.41 2.338-.549 1.018-.823 2.179-.823 3.488 0 1.204.245 2.321.736 3.346a5.262 5.262 0 0 0 2.203 2.365c.976.554 2.122.828 3.436.828 1.035 0 2.057-.196 3.065-.587s1.777-.843 2.31-1.358V41.34h-5.467v2.115h2.904v1.594c-.381.296-.84.548-1.374.757s-1.066.313-1.598.313c-1.076 0-1.943-.371-2.606-1.117-.663-.745-.993-1.865-.993-3.356 0-1.382.325-2.426.981-3.128.656-.702 1.537-1.054 2.644-1.054.734 0 1.344.18 1.832.537.488.357.82.845.998 1.462l2.518-.471c-.253-1.154-.816-2.06-1.693-2.713s-2.096-.98-3.655-.98zm-111.349.216v12.565h9.556v-2.117h-7.018v-3.42h6.307v-2.117h-6.307v-2.786h6.778v-2.125zm16.388 0v2.125h3.728v10.438h2.535V37.638h3.72v-2.125zm11.97 0v12.565h9.556v-2.117h-7.018v-3.42h6.307v-2.117h-6.307v-2.786h6.778v-2.125zm25.11 0v12.563h2.353v-8.194l5.067 8.194h2.544V35.513h-2.355v8.39l-5.141-8.39zm66.005 0v12.563h2.537V35.513zm8.919 0-4.893 12.563h2.69l1.038-2.854h5.022l1.097 2.854h2.759l-5.03-12.563zm-47.854.102v12.46h8.845v-2.117h-6.307V35.615zm-8.487 1.848c1.046 0 1.884.355 2.516 1.064.631.709.946 1.783.946 3.223 0 1.457-.323 2.55-.97 3.278s-1.48 1.093-2.49 1.093-1.843-.367-2.501-1.1-.986-1.812-.986-3.235c0-1.445.32-2.526.956-3.247.639-.716 1.482-1.076 2.528-1.076zm25.079 0c1.046 0 1.884.355 2.515 1.064.632.709.948 1.783.948 3.223 0 1.457-.326 2.55-.974 3.278s-1.48 1.093-2.49 1.093-1.843-.367-2.501-1.1-.986-1.812-.986-3.235c0-1.445.318-2.526.96-3.247.638-.716 1.48-1.076 2.527-1.076zm32.573.981 1.732 4.663h-3.43z"/></svg>