<svg width="100%" height="auto" version="1.1" viewBox="0 0 280.46 29.104" xmlns="http://www.w3.org/2000/svg">
<defs>
  <mask id="mask" x="0" y="0" width="1060" height="110">
    <rect x="0" y="100" width="100%" height="100%" fill="#fff">
      <animate attributeName="y" from="100" to="0" dur="1500ms" fill="freeze" />
    </rect>
  </mask>
</defs>
 <path d="m263.71 0.66068-0.78341 0.80977 0.34417 0.33331c-1.479 1.524-3.5587 3.6642-5.686 5.8524-1.1298 1.1615-2.2703 2.3362-3.3445 3.4422v-3.037l2.773-2.8525 0.34365 0.33331 0.78858-0.80925-0.80977-0.78858-0.78807 0.80977 0.34365 0.33331-2.7967 2.8758c-0.0159 0.0159-0.0238 0.0372-0.0238 0.061v3.2489c-0.28311 0.29104-0.56057 0.57692-0.83045 0.85473-0.79904 0.82285-0.80181 0.82554-1.6485 1.696l-0.68782 0.709c-0.0159 0.0159-0.0238 0.0372-0.0238 0.061v14.408h0.1664v-14.371c0.67998-0.70114 1.4819-1.5268 2.3497-2.421l0.81752-0.83871c1.1139-1.1483 2.3097-2.376 3.4897-3.5931 2.1272-2.1908 4.2069-4.3289 5.686-5.8529l0.34417 0.33331 0.78547-0.81183zm-252.59 0.23306v1.1296h0.47904v2.5084l-1.0558-1.0852 0.34416-0.33331-0.78858-0.80925-0.80977 0.78806 0.78858 0.80977 0.34417-0.33331 1.1772 1.2118v6.3211c-0.30956-0.3175-0.65888-0.67774-1.0558-1.0852l0.34416-0.33331-0.78858-0.80977-0.80977 0.78858 0.78858 0.80977 0.34417-0.33332c0.46037 0.47361 0.857 0.88105 1.201 1.2356 0.18785 0.19314 0.35446 0.36525 0.51056 0.524 0.82814 0.85196 1.2703 1.3068 1.5534 1.5978 0.09525 0.0979 0.17992 0.18503 0.26458 0.27234 0.10054 0.10318 0.20354 0.21181 0.33848 0.34675 0.03704 0.0397 0.07962 0.0796 0.12196 0.12454 0.0291 0.0318 0.06069 0.0633 0.09508 0.0977 0.01058 0.0106 0.021 0.0215 0.02894 0.032 0.0053 5e-3 0.01079 0.0102 0.01344 0.0155l0.07648 0.077c0.12171 0.12436 0.27 0.27763 0.45785 0.47078 0.0344 0.0344 0.0689 0.0715 0.10594 0.10852 0.06879 0.0714 0.14283 0.14587 0.22221 0.22789 0.56621 0.58473 1.3734 1.4124 2.5694 2.6427v11.09h0.16898v-11.122c0-0.0212-0.0079-0.0425-0.02377-0.061-0.17462-0.17991-0.34096-0.35175-0.49971-0.51314-0.67998-0.6985-1.2067-1.241-1.6247-1.6722-0.07408-0.0767-0.14566-0.15077-0.21446-0.22221l-0.02377-0.0238c-0.67204-0.69056-1.0506-1.0793-1.3152-1.3519-0.07673-0.0794-0.14004-0.14573-0.20619-0.21187-0.14817-0.15081-0.29606-0.30409-0.58446-0.60307-0.26458-0.27252-0.64606-0.66416-1.3472-1.3865-0.16404-0.16934-0.34371-0.35444-0.5395-0.55553v-9.2552h0.47904v-1.1296zm19.122 0v1.1296h0.47852v26.978h0.17208v-26.978h0.47904v-1.1296zm22.341 0v1.1296h0.47904v2.7197c0 0.0212 0.0079 0.0425 0.02376 0.061 2.2384 2.3045 4.0613 4.1804 5.9319 6.1066 1.8997 1.9553 3.8471 3.9606 6.3262 6.5112v1.0242h0.47852v10.555h0.17467v-10.558h0.47904v-1.1302h-0.99476c-2.4844-2.5559-4.4373-4.5641-6.3397-6.5247-1.8627-1.9182-3.6799-3.7884-5.9076-6.0797v-2.6856h0.47852v-1.1296zm22.344 0v1.1296h0.47904v5.7914c-1.3467-1.3864-2.4977-2.5691-3.0427-3.1326-0.01588-0.0159-0.03717-0.0264-0.06098-0.0264h-6.3443l-1.1777-1.2092 0.34416-0.33331-0.78858-0.80925-0.80977 0.78806 0.78858 0.80977 0.34416-0.33331 1.201 1.2356c0.01588 0.0159 0.03717 0.0264 0.06098 0.0264h6.3448c0.64558 0.6641 2.0715 2.1297 3.6695 3.7781 1.4155 1.4579 2.0265 2.0877 2.5425 2.6195h-8.8026v-0.47852h-0.99477l-0.709-0.73071 0.34416-0.33331-0.78858-0.80925-0.80977 0.78806 0.78858 0.80977 0.34365-0.33331 0.69866 0.71675v1.0242h1.1296v-0.47904h8.9695l0.58498 0.60358c0.99748 1.0292 1.9024 1.9604 2.5559 2.6324v14.363h0.16898v-17.689c0-0.0212-0.0079-0.0425-0.02376-0.061l-1.201-1.2356 0.34365-0.33331-0.78806-0.80977-0.80977 0.78858 0.78858 0.80977 0.34365-0.33332 1.1777 1.2118v3.0401l-0.65112-0.67231c-0.68527-0.70644-0.76735-0.79075-1.3865-1.4258-0.21431-0.21961-0.39413-0.40531-0.55552-0.57464-1.0186-1.0478-2.1219-2.1853-3.1538-3.2463-0.14552-0.15081-0.29898-0.3066-0.46302-0.47594v-5.9717h0.47904v-1.1296zm25.525 0v1.1296h1.1296v-0.47905h12.16c0.34396 0.35455 1.4604 1.5054 3.0241 3.114h-2.4236v-0.47853h-1.1296v1.1296h1.1296v-0.47904h2.5905c0.15346 0.1561 0.34108 0.35181 0.56069 0.57671 1.5505 1.5954 3.4317 3.5321 5.4002 5.5588l-0.34417 0.33383 0.78858 0.80925 0.34417-0.33331c1.6325 1.6801 3.2991 3.3946 4.8602 5.0033 3.1141 3.2041 6.0037 6.1779 7.4853 7.7019v4.5206h0.16899v-4.5573c0-0.0212-8e-3 -0.0425-0.0238-0.061-0.4154-0.42862-2.1142-2.1752-4.4028-4.53-1.3996-1.4393-2.9021-2.9896-4.2488-4.3734l-3.715-3.823 0.34417-0.33332-0.78858-0.80977-0.34365 0.33332c-2.1669-2.2304-4.064-4.1831-5.2255-5.379-2.077-2.1378-3.5855-3.6912-3.9532-4.0695-0.0159-0.0159-0.0372-0.0264-0.061-0.0264h-12.197v-0.47852zm28.715 0v1.1296h0.47904v2.5084l-1.0558-1.0852 0.34416-0.33331-0.78858-0.80925-0.80977 0.78806 0.78859 0.80977 0.34416-0.33331 1.1772 1.2118v3.2463c0 0.0212 8e-3 0.0425 0.0238 0.061 0.34396 0.35455 0.71973 0.74326 1.1219 1.156 1.524 1.569 3.4081 3.5113 5.2576 5.4136v3e-3l2.5425 2.6138c0.09 0.0899 0.17171 0.17733 0.25373 0.262l-0.34364 0.33331 0.78858 0.80977 0.34365-0.33331c1.0636 1.0954 1.9844 2.0424 2.5135 2.5874l0.25941 0.26769v2.6825h-0.47904v1.1296h0.47904v3.9889h0.1695v-3.9889h0.47852v-1.1296h-0.47852v-5.4395h0.47852v-1.1302h-1.1296v1.1302h0.47904v2.5079l-0.57413-0.59273c-0.27252-0.28046-0.45779-0.47052-0.65887-0.67955-0.24342-0.25135-0.42342-0.4366-0.81235-0.83612-0.16934-0.17198-0.36494-0.37612-0.60307-0.62218l0.34365-0.33332-0.71417-0.73277v-12.412c0-0.0212-8e-3 -0.0425-0.0238-0.061l-1.2015-1.2356 0.34417-0.33331-0.78858-0.80925-0.80977 0.78806 0.78858 0.80977 0.34417-0.33331 1.1772 1.2118v12.396l-0.24598 0.24081c-0.10318-0.10848-0.20887-0.21444-0.3147-0.32556-0.82021-0.84402-1.6724-1.7199-2.4582-2.5296v-9.8159c0-0.0212-8e-3 -0.0419-0.0238-0.0605l-1.201-1.2361 0.34365-0.33332-0.78806-0.80925-0.80977 0.78807 0.78858 0.80977 0.34365-0.33332 1.1777 1.2118v9.6046c-1.5611-1.606-2.8311-2.9131-3.019-3.1063v-9.2578h0.47852v-1.1296h-1.1296v1.1296h0.47904v9.078c-1.1271-1.1615-2.1696-2.2357-3.0189-3.1088v-5.9691h0.47904v-1.1296zm60.616 0v1.1296h0.47852v26.978h0.17209v-26.978h0.47904v-1.1296zm3.1962 0v1.1296h0.47852v21.857h-0.47852v1.1296h0.47852v2.1539h-0.47852v1.1296h0.47852v0.70797h0.17208v-0.70538h0.47904v-1.1296h-0.47904v-2.1539h0.47904v-1.1296h-0.47904v-21.86h0.47904v-1.1296zm25.519 0v1.1296h0.47904v9.202h-6.2947c-0.0238 0-0.0451 0.0105-0.061 0.0264-0.0185 0.0212-3.2409 3.3367-5.9872 6.1624l-0.24598-0.24082v-5.826l1.1772-1.2118 0.34416 0.33331 0.78807-0.80977-0.80926-0.78858-0.78858 0.80977 0.34417 0.33331-1.2015 1.2356c-0.0159 0.0159-0.0238 0.0372-0.0238 0.061v5.8446l-0.71417 0.73277 0.34365 0.33332-0.26458 0.27285c-0.41011 0.42333-0.64304 0.66152-0.83354 0.85731-0.24871 0.254-0.43094 0.44458-0.85163 0.8785l-0.69866 0.71933v-12.888l1.1777-1.2118 0.34365 0.33331 0.78858-0.80977-0.80977-0.78858-0.78858 0.80977 0.34416 0.33331-1.201 1.2356c-0.0159 0.0159-0.0243 0.0372-0.0243 0.061v15.854h-0.47853v1.1296h0.47853v3.9941h0.16433v-3.9915h0.47904v-1.1296h-0.47904v-2.683l0.23254-0.23771c0.10054-0.10319 0.212-0.21704 0.339-0.34934 0.55033-0.5662 1.3309-1.368 2.2014-2.2676l0.34365 0.33332 0.78858-0.80977-0.34416-0.33332c2.6114-2.6882 5.6545-5.8207 5.9614-6.1355h15.917c0.0476 0 0.0848-0.0371 0.0848-0.0847v-2.7223h0.47852v-1.1302h-1.1297v1.1302h0.47904v2.635h-3.0189v-3.1642l4.3682-4.4928 0.34417 0.33331 0.78806-0.80977-0.80925-0.78806-0.78858 0.80925 0.34365 0.33331-4.392 4.5191c-0.0159 0.0159-0.0238 0.0372-0.0238 0.061v3.1988h-6.21v-9.202h0.47904v-1.1296zm34.052 1.402-0.78807 0.80977 0.34365 0.33331-0.709 0.73019h-0.99477v1.1296h0.47904v2.683l-0.48989 0.50281c-0.0265 0.0265-0.0501 0.0527-0.0739 0.0765l-0.0977 0.10077c-0.254 0.26194-0.43939 0.45219-0.58756 0.60565-0.32808 0.33602-0.86783 0.89454-1.9182 1.974-0.0159 0.0159-0.0238 0.0372-0.0238 0.061v17.699h0.17209v-17.662l0.7989-0.82269c0.53975-0.55563 0.69871-0.717 1.0718-1.1033 0.25136-0.25929 0.38098-0.3917 0.50798-0.52399 0.0503-0.0503 0.1005-0.10303 0.15606-0.16123l0.17725-0.18242c0.26723-0.27517 0.71173-0.73333 1.6536-1.7017l0.34365 0.33383 0.78858-0.80977-0.80977-0.78858-0.78807 0.80977 0.34365 0.33331c-0.45508 0.46831-0.79646 0.82011-1.0558 1.0847v-2.5058h0.47904v-1.0237l0.69867-0.71675 0.34365 0.33331 0.78858-0.80977zm-79.735 8e-3 -0.80977 0.78806 0.78858 0.80977 0.34417-0.33331 1.1772 1.2118v9.6072l-1.0558-1.0878 0.34417-0.33331-0.786-0.80977-0.81236 0.78599 0.786 0.81236 0.34417-0.33331 1.1772 1.2144v14.366h0.17208v-24.258c0-0.0212-8e-3 -0.0425-0.0238-0.061l-1.2015-1.2356 0.34417-0.33331zm68.567 1.6402-0.78859 0.80977 0.34417 0.33331-2.7967 2.8758c-0.0159 0.0159-0.0238 0.0372-0.0238 0.061v20.978h0.16898v-20.94l2.773-2.8525 0.34416 0.33331 0.78859-0.80925zm-194.6 5e-3 -0.73329 0.71468h-5.0932v-0.47904h-1.1296v1.1296h1.1296v-0.47904h5.1118l0.6935 0.71468 0.34365-0.33331c1.0874 1.1192 3.2334 3.3258 5.5935 5.7573l-0.34416 0.33331 0.78858 0.80977 0.34416-0.33383c0.11112 0.11377 0.23002 0.23558 0.35967 0.37052 3.9476 4.064 8.1149 8.3532 8.7922 9.0516v7.7959h0.1664v-7.8383c0-0.0212-0.0079-0.0425-0.02376-0.061-0.01852-0.0185-0.03665-0.0397-0.06046-0.0636-0.17992-0.18521-0.42896-0.44169-0.73587-0.75654-0.27252-0.28311-0.59236-0.60858-0.93896-0.96842-2.1034-2.1643-5.3392-5.4978-7.014-7.2202-0.14288-0.14552-0.28346-0.29114-0.42633-0.43666l0.34416-0.33332-0.71468-0.73329v-2.5637c0-0.0212-0.0079-0.0425-0.02376-0.061l-1.201-1.2356 0.34365-0.33331-0.78807-0.80977-0.80977 0.78858 0.78858 0.80977 0.34365-0.33331 1.1777 1.2118v2.5451l-0.24598 0.24081c-2.3627-2.4315-4.506-4.6381-5.5935-5.7573l0.34365-0.33331zm47.289 0.23047v1.1296h0.47904v21.857h-0.47904v1.1296h0.47904v0.70538h0.17208v-0.70538h0.47904v-1.1296h-0.47904v-21.857h0.47904v-1.1296zm3.191 0v1.1296h0.47904v23.692h0.17208v-23.692h0.47852v-1.1296zm67.008 0v1.1296h0.47904v5.7919l-1.0558-1.0852 0.34417-0.33331-0.78859-0.80977-0.80977 0.78858 0.78859 0.80977 0.34416-0.33332 1.1772 1.2118v17.652h0.17208v-23.692h0.47904v-1.1296zm5.3578 1.4072-0.80925 0.78858 0.78807 0.80977 0.34416-0.33331 1.1772 1.2118v9.2522h-0.47852v1.1302h0.47852v10.555h0.1695v-10.558h0.47904v-1.1302h-0.47904v-9.2868c0-0.0212-8e-3 -0.0425-0.0238-0.061l-1.2015-1.2356 0.34417-0.33331zm-151.55 1.6407-0.81235 0.78548 0.786 0.80977 0.34365-0.33331 0.27285 0.28318c0.93398 0.96309 0.93369 0.96317 1.6878 1.7384l0.81235 0.83354v2.6851h-0.47904v1.1302h0.47904v13.842h0.17467v-13.839h0.47904v-1.1302h-0.47904v-2.7197c0-0.0212-0.0079-0.0425-0.02377-0.061l-0.83612-0.85989c-0.75406-0.77523-0.75429-0.7748-1.6883-1.7379l-0.27492-0.28061 0.34416-0.33331zm248.82 3e-3 -0.78547 0.81235 0.34365 0.33332c-1.6484 1.6986-2.2433 2.3096-2.8148 2.897-0.62706 0.64558-1.2277 1.2625-3.1724 3.268-0.0159 0.0159-0.0238 0.0367-0.0238 0.0579v9.8134c-1.5875 1.6351-1.924 1.9816-2.297 2.3626-0.26884 0.27709-1.3648 1.4048-2.1637 2.2267h0.23513l1.156-1.1896h5.7784v0.47904h1.1302v-1.1296h-1.1302v0.47904h-5.6141l0.016-0.016c0.34396-0.35455 0.53425-0.55015 0.71417-0.73536 0.13494-0.13758 0.26438-0.27252 0.44958-0.46302 0.32809-0.33867 0.83092-0.85504 1.8469-1.9001h3.1538c0.0238 0 0.0451-0.0105 0.061-0.0264l3.1642-3.2572h3.1538c0.0238 0 0.0451-0.0105 0.061-0.0264l0.73276-0.75396c0.82021-0.84402 0.82069-0.84404 2.8474-2.9316l2.4076-2.4763 0.34364 0.33331 0.78859-0.80977-0.80978-0.78858-0.78807 0.80977 0.34364 0.33331-2.4076 2.4768c-2.0294 2.0876-2.0293 2.0876-2.8468 2.9316l-0.70644 0.73019h-3.0691v-3.1564l3.1667-3.2572c0.43392-0.44715 0.64331-0.66179 0.84439-0.86816 0.36513-0.37571 0.7062-0.72997 2.3466-2.4154 0.0159-0.0159 0.0238-0.0372 0.0238-0.061v-2.7223h0.47903v-1.1302h-1.1296v1.1302h0.47853v2.6851c-1.6192 1.6669-1.9604 2.0164-2.3229 2.3921-0.17727 0.18256-0.36007 0.37014-0.69609 0.71675v-3.037l1.1777-1.2118 0.34364 0.33331 0.78859-0.80977-0.80978-0.78858-0.78806 0.80977 0.34366 0.33331-1.201 1.2356c-0.0159 0.0159-0.0238 0.0372-0.0238 0.061v3.2489c-0.40216 0.4154-0.99473 1.0241-1.9446 2.0004l-1.2227 1.2568c-0.0159 0.0159-0.0238 0.0372-0.0238 0.061v3.2489l-3.1404 3.2308h-3.0696v-9.726c1.9235-1.9844 2.5242-2.6008 3.1486-3.2411 0.5715-0.58738 1.167-1.1989 2.8153-2.8975l0.34364 0.33331 0.78599-0.80925zm-99.446 0.22996v1.1302h0.47904v2.156h-0.47904v1.1302h0.47904v2.1559h-0.47904v1.1302h0.47904v5.7914l-1.0558-1.0873 0.34365-0.33331-0.78548-0.81236-0.81236 0.786 0.786 0.80925 0.34365-0.33331 1.1777 1.2144v2.683h-0.47904v1.1296h0.47904v3.9915h0.17415v-3.9858h0.47904v-1.1302h-0.47904v-8.723h0.47904v-1.1302h-0.47904v-2.1559h0.47904v-1.1302h-0.47904v-2.1559h0.47904v-1.1302zm75.525 1.4102-0.78806 0.80977 0.34364 0.33331-1.201 1.2356c-0.0159 0.0159-0.0238 0.0372-0.0238 0.061v17.691h0.16898v-17.654l1.1777-1.2118 0.34365 0.33331 0.78858-0.80977zm-159.5 3e-3 -0.80977 0.78859 0.78858 0.80977 0.34416-0.33332 1.1772 1.2118v17.652h0.1695v-17.689c0-0.0212-0.0079-0.0425-0.02376-0.061l-1.2015-1.2356 0.34416-0.33331zm35.1 0-0.80977 0.78859 0.78858 0.80977 0.34416-0.33332 1.1772 1.2118v3.2489c0 0.0212 8e-3 0.0425 0.0238 0.061 0.85725 0.88106 2.5187 2.5903 4.392 4.5191l-0.34366 0.3333 0.78548 0.80977 0.34417-0.33331c0.0609 0.0635 0.12156 0.12408 0.18241 0.18758 0.93398 0.96308 1.63 1.6776 2.22 2.2862l-0.34416 0.33331 0.78858 0.80977 0.34417-0.33331c0.13758 0.14023 0.26968 0.27738 0.40462 0.41496l0.9369 0.96583v3e-3c0.99748 1.0266 1.8836 1.9395 2.5451 2.6195v1.0242h0.47904v0.70229h0.17467v-0.70539h0.47852v-1.1296h-0.99477l-0.21704-0.22221c-0.762-0.78317-0.8568-0.88351-1.849-1.9048-0.17727-0.18256-0.344-0.35478-0.50539-0.51883-0.42598-0.4392-0.87346-0.89685-1.3312-1.3705l0.34416-0.33331-0.78858-0.80977-0.34416 0.33331c-0.7329-0.75406-1.4814-1.5238-2.2143-2.2805-0.0635-0.0635-0.12408-0.12712-0.18758-0.19327l0.34365-0.33331-0.786-0.81235-0.34365 0.33331c-1.8547-1.9104-3.503-3.6065-4.3682-4.4928v-3.2489c0-0.0212-8e-3 -0.0425-0.0238-0.061l-1.2015-1.2356 0.34416-0.33331zm39.307 1.8733v1.1302h0.47853v12.004h-0.47853v1.1296h0.47853v3.9915h0.17208v-3.9915h0.47904v-1.1296h-0.47904v-12.004h0.47904v-1.1302zm25.524 0v1.1302h0.47904v17.125h0.17208v-17.125h0.47904v-1.1302zm-38.29 3.2861v1.1302h0.47852v12.004h-0.47852v1.1296h0.47852v0.70538h0.17208v-0.70538h0.47905v-1.1296h-0.47905v-12.004h0.47905v-1.1302zm41.476 0v1.1302h0.47904v13.839h0.17157v-13.839h0.47904v-1.1302zm44.664 0v1.1302h0.47852v5.4369h-0.47852v1.1302h0.47852v7.2719h0.17208v-7.2719h0.47904v-1.1302h-0.47904v-5.4369h0.47904v-1.1302zm-159.52 3.2809v1.1302h0.47853v10.558h0.17208v-10.558h0.47904v-1.1302zm3.1905 0v1.1302h0.47904v10.558h0.17208v-10.558h0.47904v-1.1302zm35.097 0v1.1302h0.47904v10.558h0.17208v-10.558h0.47852v-1.1302zm3.1884 0v1.1302h0.47904v2.7197c0 0.0476 0.0366 0.0847 0.0842 0.0847h6.3448c4.4291 4.5561 5.1248 5.2731 5.7624 5.9319 0.0661 0.0688 0.12964 0.13481 0.19843 0.2036l-0.34365 0.33332 0.78859 0.80977 0.34365-0.33332 0.78548 0.80822h0.23978c-0.33098-0.34061-0.68499-0.70467-0.90073-0.92759l0.34365-0.33331-0.78806-0.80977-0.34417 0.33383c-0.0688-0.0714-0.13229-0.13798-0.19843-0.20412-0.64029-0.65882-1.3359-1.3784-5.7888-5.9557-0.0159-0.0159-0.0372-0.0264-0.061-0.0264h-6.2947v-2.635h0.47904v-1.1302zm34.078 1.4051-0.80925 0.786 0.78548 0.80925 0.34417-0.33331 1.1772 1.2144v7.8068h0.16949v-7.8383c0-0.0212-8e-3 -0.0425-0.0238-0.061l-1.2015-1.2382 0.34416-0.33332zm35.073 5e-3 -0.78601 0.81235 0.34417 0.33331-0.71158 0.73278h-0.99478v1.1302h0.47853v7.2693h0.17467v-7.2719h0.47903v-1.0242l0.69867-0.71985 0.34365 0.33383 0.786-0.80977zm27.115 1.6407-0.78858 0.80926 0.34416 0.33331-2.7967 2.8763c-0.0159 0.0159-0.0238 0.0372-0.0238 0.061v4.5573h0.16898v-4.5232l2.773-2.8494 0.34416 0.33331 0.78859-0.80977zm-156.32 3e-3 -0.80977 0.78858 0.78858 0.80925 0.34416-0.33331c1.2065 1.2409 2.1088 2.1699 2.7967 2.8763l0.39119 0.40204c0.84402 0.86783 1.3048 1.3439 1.6356 1.6826 0.10583 0.10848 0.22746 0.23302 0.37827 0.38912l0.40204 0.41548 0.35967 0.37v1.2346h0.1695v-1.2635c0-0.0212-0.0079-0.0425-0.02379-0.061l-0.50539-0.52091c-0.22225-0.23018-0.40496-0.4182-0.67748-0.69866-0.42333-0.43656-0.5686-0.58465-1.2671-1.3043l-0.10335-0.10594c-0.18256-0.18785-0.38637-0.39704-0.61392-0.63252v-2.6851h0.47904v-1.1302h-1.1296v1.1302h0.47852v2.5053c-0.66675-0.68792-1.5266-1.5687-2.6484-2.7249l0.34416-0.33383zm-51.615 0.23253v1.1302h0.47904v7.2719h0.17208v-7.2719h0.47852v-1.1302zm3.191 0v1.1302h0.47904v7.2719h0.17157v-7.2719h0.47904v-1.1302zm19.126 0v1.1302h0.47904v7.2719h0.17208v-7.2719h0.47904v-1.1302zm19.146 0v1.1302h0.47852v7.2719h0.17208v-7.2719h0.47904v-1.1302zm118.06 0v1.1302h0.47904v2.1508h-0.47904v1.1296h0.47904v3.9915h0.17208v-3.9915h0.47904v-1.1296h-0.47904v-2.1508h0.47904v-1.1302zm-57.435 3.2784v1.1296h0.47852v3.9941h0.17208v-3.9941h0.47904v-1.1296zm-63.82 5e-3v1.1296h0.47904v3.9889h0.17208v-3.9889h0.47852v-1.1301zm235.06 1.4025-0.786 0.81235 0.34417 0.33332-1.201 1.2382c-0.0159 0.0159-0.0243 0.0372-0.0243 0.061v1.2712h0.17208v-1.2371l1.1777-1.2144 0.34364 0.33332 0.78599-0.81236zm3.191 3e-3 -0.786 0.81235 0.34415 0.33331-1.2015 1.2382c-0.0159 0.0159-0.0238 0.0372-0.0238 0.061v1.2686h0.17209v-1.2346l1.1772-1.2144 0.34417 0.33331 0.786-0.81184zm-231.87 1.8784v1.1296h0.47904v0.70538h0.17208v-0.70538h0.47904v-1.1296zm175.49 0v1.1296h0.47852v0.70538h0.17208v-0.70538h0.47904v-1.1296zm31.9 0v1.1296h0.47904v0.70538h0.17208v-0.70538h0.47904v-1.1296z" fill="#033dff" stroke="#033dff" stroke-width=".20343" style="paint-order:stroke markers fill" mask="url(#mask)"/>
</svg>
