<svg viewBox="0 0 400 160.65" xmlns="http://www.w3.org/2000/svg"><style>.st1{fill:#f5f5f5}</style><path d="M235.15 585.81h50.42c18.76 0 33.18-5.76 42.86-17.12 9.57-11.22 14.42-25.44 14.42-42.27v-73.86c0-18.78-5.78-33.03-17.17-42.37-11.12-9.11-25.36-13.94-42.34-14.37l-3.06-.13.07-3.97c-.18-16.43-5.03-30.25-14.42-41.08l-.21-.24c-9.43-10.78-23.21-16.75-37.53-16.7l-29.73.1h-52.9c-18.75 0-33.16 5.67-42.85 16.84-9.39 10.83-14.24 24.65-14.42 41.08l.07 3.97-3.06.13c-16.98.42-31.22 5.26-42.34 14.37-11.39 9.34-17.17 23.59-17.17 42.37v73.86c0 16.83 4.85 31.05 14.42 42.27 9.68 11.36 24.1 17.12 42.86 17.12h50.42v-62.33H98.54c-5.45 0-9.88-4.43-9.88-9.88l-.28-117.51 149.1.02v-.02l42.79-.01-.28 117.51c0 5.45-4.43 9.88-9.88 9.88h-34.97v62.34z" style="fill:#033dff" transform="translate(-10.031 -129.71) scale(.38895)"/><path class="st1" d="m202.448 0 .012 78.626-36.386-.09a3.06 3.06 0 0 1-3.057-3.056V64.65h-19.3v15.613c0 5.81 1.785 10.276 5.301 13.27 3.474 2.964 7.877 4.466 13.089 4.466h22.87c5.815 0 10.23-1.79 13.12-5.317 2.819-3.442 4.316-7.853 4.449-13.108l.039-.949 1.229.024c5.087-.055 9.366-1.556 12.718-4.466 3.462-2.998 5.216-7.46 5.216-13.267V0zM309.771 78.233h-53.83a4.027 4.027 0 0 1-4.022-4.021V23.917a4.027 4.027 0 0 1 4.022-4.022h53.827V.128h-59.891c-5.87 0-10.323 1.836-13.24 5.461-2.866 3.551-4.321 8.009-4.321 13.248v60.466c0 5.24 1.455 9.693 4.317 13.244 2.921 3.62 7.375 5.46 13.244 5.46h59.894zM370.619 58.035c15.632-.26 28.292-12.971 28.463-28.626.18-16.107-13.177-29.285-29.284-29.285h-29.494l-4.27.008c-8.503.016-15.388 6.912-15.388 15.414v82.59h19.685V19.728h29.619c5.107 0 9.408 4.021 9.53 9.128.124 5.263-4.12 9.58-9.355 9.58h-19.362V63.92l24.632 34.212h24.601zM232.41 136.965v-15.46h3.123v15.46zM238.97 136.965v-15.46h3.039l6.328 10.326v-10.327h2.901v15.46h-3.13l-6.232-10.08v10.08zM254.988 136.965v-15.46h10.599v2.613h-7.476v3.66h6.453v2.614h-6.453v6.569h-3.123zM267.96 129.33c0-1.575.237-2.898.707-3.968.35-.785.833-1.493 1.44-2.12s1.275-1.088 1.999-1.392c.964-.408 2.073-.61 3.333-.61 2.28 0 4.1.707 5.468 2.12s2.05 3.38 2.05 5.896c0 2.497-.677 4.45-2.034 5.857s-3.17 2.116-5.441 2.116c-2.3 0-4.127-.7-5.485-2.104-1.357-1.4-2.038-3.333-2.038-5.795zm3.216-.105c0 1.75.404 3.076 1.213 3.983.81.902 1.836 1.353 3.08 1.353s2.269-.447 3.066-1.346c.797-.894 1.198-2.24 1.198-4.033 0-1.774-.39-3.092-1.167-3.967-.778-.872-1.809-1.307-3.096-1.307s-2.322.44-3.112 1.322c-.785.887-1.182 2.217-1.182 3.995zM285.835 136.965v-15.46h6.57c1.653 0 2.85.14 3.602.415s1.35.77 1.796 1.482c.452.712.673 1.521.673 2.435 0 1.16-.342 2.12-1.023 2.874s-1.7 1.233-3.057 1.428c.677.393 1.233.824 1.673 1.299.44.47 1.03 1.307 1.777 2.509l1.887 3.014h-3.734l-2.256-3.364c-.801-1.202-1.35-1.96-1.645-2.272s-.607-.529-.938-.642c-.33-.116-.855-.175-1.571-.175h-.634v6.453h-3.12zm3.124-8.919h2.31c1.498 0 2.431-.062 2.804-.19s.666-.347.876-.654c.21-.311.315-.696.315-1.159 0-.521-.14-.941-.417-1.26s-.669-.521-1.174-.607c-.253-.035-1.011-.054-2.28-.054h-2.434zM301.814 136.965v-15.46h4.67l2.805 10.544 2.773-10.545h4.683v15.46h-2.901v-12.17l-3.07 12.17h-3.006l-3.057-12.17v12.17zM334.22 136.965h-3.395l-1.35-3.512h-6.18l-1.276 3.512h-3.31l6.021-15.46h3.303zm-5.744-6.114-2.131-5.737-2.09 5.737zm-3.924-10.23 1.454-3.154h3.322l-2.902 3.154zM339.79 136.965v-12.847h-4.589v-2.614h12.287v2.614h-4.578v12.847zM349.841 136.965v-15.46h3.123v15.46zM366.263 131.282l3.026.961c-.463 1.688-1.237 2.94-2.315 3.761-1.081.82-2.45 1.23-4.107 1.23-2.054 0-3.742-.7-5.064-2.105s-1.984-3.322-1.984-5.753c0-2.574.665-4.57 1.992-5.997 1.33-1.424 3.076-2.136 5.243-2.136 1.89 0 3.426.56 4.609 1.677.704.661 1.229 1.61 1.583 2.847l-3.092.739c-.183-.801-.564-1.435-1.144-1.898s-1.283-.696-2.116-.696c-1.147 0-2.077.412-2.789 1.233s-1.07 2.154-1.07 3.998c0 1.956.35 3.345 1.055 4.177s1.618 1.245 2.742 1.245c.828 0 1.544-.264 2.14-.79.598-.532 1.03-1.36 1.29-2.493zM386.348 136.965h-3.396l-1.35-3.512h-6.18l-1.275 3.512h-3.31l6.02-15.46h3.303zm-5.749-6.114-2.131-5.737-2.089 5.737zM232.507 160.38v-15.461h11.462v2.614h-8.343v3.426h7.763v2.606h-7.763v4.209h8.638v2.606zM257.255 160.38v-12.847h-4.59v-2.614h12.292v2.614h-4.578v12.847zM267.403 160.38v-15.461h11.462v2.614h-8.342v3.426h7.763v2.606h-7.763v4.209h8.638v2.606zM292.133 154.697l3.026.96c-.463 1.689-1.237 2.941-2.315 3.762-1.08.82-2.45 1.229-4.107 1.229-2.054 0-3.742-.7-5.064-2.104s-1.984-3.322-1.984-5.753c0-2.575.665-4.57 1.992-5.997 1.33-1.424 3.076-2.136 5.243-2.136 1.89 0 3.426.56 4.609 1.677.704.66 1.229 1.61 1.583 2.847l-3.092.739c-.183-.801-.564-1.435-1.144-1.898s-1.283-.697-2.116-.697c-1.147 0-2.077.413-2.789 1.233s-1.07 2.155-1.07 3.999c0 1.956.35 3.345 1.055 4.177s1.618 1.245 2.742 1.245c.828 0 1.544-.265 2.14-.79.602-.533 1.03-1.361 1.29-2.493zM298.301 160.38v-15.461h3.038l6.328 10.327v-10.327h2.902v15.46h-3.131l-6.231-10.08v10.08zM313.669 152.745c0-1.576.233-2.898.708-3.968.35-.785.832-1.493 1.439-2.12s1.275-1.089 1.999-1.392c.965-.408 2.073-.61 3.333-.61 2.28 0 4.1.707 5.469 2.12s2.05 3.38 2.05 5.896c0 2.497-.677 4.45-2.035 5.857s-3.17 2.116-5.441 2.116c-2.299 0-4.127-.7-5.484-2.104-1.361-1.404-2.038-3.333-2.038-5.795zm3.216-.105c0 1.75.405 3.076 1.214 3.982.809.903 1.836 1.354 3.08 1.354s2.268-.447 3.065-1.346c.798-.894 1.198-2.24 1.198-4.033 0-1.774-.389-3.092-1.167-3.968-.778-.87-1.808-1.306-3.096-1.306s-2.322.44-3.111 1.322c-.79.887-1.183 2.217-1.183 3.995zM331.615 160.38v-15.337h3.123v12.73h7.764v2.607zM344.524 152.745c0-1.576.234-2.898.708-3.968.35-.785.832-1.493 1.44-2.12s1.275-1.089 1.998-1.392c.965-.408 2.073-.61 3.334-.61 2.279 0 4.1.707 5.468 2.12s2.05 3.38 2.05 5.896c0 2.497-.677 4.45-2.034 5.857s-3.17 2.116-5.442 2.116c-2.298 0-4.126-.7-5.484-2.104s-2.038-3.333-2.038-5.795zm3.217-.105c0 1.75.404 3.076 1.213 3.982.81.903 1.836 1.354 3.08 1.354s2.268-.447 3.066-1.346c.797-.894 1.198-2.24 1.198-4.033 0-1.774-.39-3.092-1.167-3.968-.778-.87-1.809-1.306-3.096-1.306s-2.322.44-3.112 1.322c-.79.887-1.182 2.217-1.182 3.995zM369.584 154.697v-2.606h6.729v6.161c-.653.634-1.602 1.19-2.843 1.673s-2.497.723-3.77.723c-1.617 0-3.025-.338-4.227-1.019-1.202-.677-2.104-1.65-2.711-2.91s-.906-2.633-.906-4.118c0-1.61.338-3.042 1.011-4.294s1.66-2.21 2.964-2.879c.992-.513 2.225-.77 3.703-.77 1.921 0 3.418.405 4.496 1.206 1.081.805 1.773 1.918 2.085 3.337l-3.1.58c-.218-.759-.626-1.358-1.23-1.797s-1.353-.661-2.251-.661c-1.366 0-2.447.431-3.252 1.299s-1.206 2.147-1.206 3.85c0 1.836.409 3.213 1.225 4.13s1.883 1.378 3.205 1.378c.654 0 1.311-.129 1.968-.385s1.222-.568 1.692-.934v-1.96h-3.582zM379.541 160.38v-15.461h3.124v15.46zM400 160.38h-3.395l-1.35-3.513h-6.18l-1.276 3.513h-3.31l6.02-15.461h3.303zm-5.745-6.115-2.131-5.737-2.089 5.737z"/></svg>